<svg width="352" height="376" viewBox="0 0 352 376" fill="none" xmlns="http://www.w3.org/2000/svg">
<g clip-path="url(#clip0_7081_19104)">
<path opacity="0.16" d="M57.6338 374.969L48.0384 355.69C47.973 355.557 47.8759 355.442 47.7557 355.356C47.6355 355.27 47.4959 355.214 47.3493 355.195C47.2026 355.176 47.0534 355.193 46.915 355.245C46.7765 355.297 46.653 355.382 46.5553 355.494L30.4807 373.589C30.2014 373.903 29.8087 374.094 29.3891 374.118C28.9694 374.143 28.5571 374 28.2429 373.72L20.8111 367.104C20.6547 366.966 20.527 366.798 20.4354 366.611C20.3439 366.423 20.2902 366.219 20.2775 366.01C20.2648 365.802 20.2933 365.593 20.3614 365.395C20.4295 365.198 20.5358 365.016 20.6744 364.859L36.7869 346.733C36.8872 346.62 36.9575 346.484 36.9914 346.337C37.0253 346.19 37.0218 346.037 36.9811 345.891C36.9404 345.746 36.8639 345.613 36.7586 345.505C36.6532 345.397 36.5225 345.317 36.3783 345.273L15.3584 338.84C15.0025 338.753 14.6836 338.554 14.4481 338.273C14.2126 337.991 14.0727 337.643 14.0486 337.276C14.0246 336.91 14.1177 336.546 14.3143 336.236C14.511 335.927 14.8011 335.688 15.1426 335.554L75.8226 311.62C77.2579 311.003 78.7739 312.28 78.3257 313.72L61.0679 374.735C60.5817 376.302 58.3292 376.449 57.6338 374.969Z" fill="url(#paint0_linear_7081_19104)"/>
<path d="M43.5813 369.648L33.986 350.369C33.9206 350.236 33.8235 350.121 33.7033 350.035C33.5831 349.949 33.4435 349.893 33.2968 349.874C33.1502 349.855 33.001 349.872 32.8625 349.924C32.7241 349.976 32.6005 350.061 32.5029 350.172L16.4282 368.266C16.1489 368.58 15.7563 368.771 15.3367 368.796C14.917 368.82 14.5047 368.677 14.1905 368.398L6.75871 361.782C6.60225 361.643 6.47457 361.476 6.383 361.288C6.29143 361.1 6.23776 360.896 6.22505 360.688C6.21235 360.479 6.24085 360.27 6.30896 360.073C6.37706 359.875 6.48341 359.693 6.62193 359.537L22.7362 341.404C22.8364 341.291 22.9067 341.155 22.9406 341.008C22.9746 340.861 22.971 340.707 22.9303 340.562C22.8896 340.417 22.8131 340.284 22.7078 340.176C22.6024 340.068 22.4717 339.988 22.3275 339.944L1.30764 333.511C0.951684 333.423 0.632852 333.224 0.397349 332.943C0.161846 332.662 0.0219141 332.313 -0.00213957 331.947C-0.0261933 331.581 0.0668726 331.217 0.263563 330.907C0.460253 330.597 0.750351 330.359 1.09179 330.225L61.7718 306.291C63.2071 305.674 64.7231 306.951 64.2749 308.391L47.0171 369.406C46.5293 370.981 44.2784 371.128 43.5813 369.648Z" fill="url(#paint1_linear_7081_19104)"/>
<path d="M285.653 49.5527V256.001C285.652 259.667 284.197 263.182 281.608 265.774C279.018 268.366 275.506 269.823 271.844 269.824L200.542 269.767L140.847 269.715H106.434C104.616 269.714 102.817 269.354 101.138 268.656C99.4595 267.957 97.9351 266.934 96.6523 265.645C95.3695 264.356 94.3534 262.826 93.6623 261.143C92.9713 259.46 92.6188 257.657 92.6251 255.837V19.0766C92.626 15.4108 94.0811 11.8954 96.6706 9.30335C99.2601 6.71126 102.772 5.25466 106.434 5.25378H241.427L266.271 30.153L285.653 49.5527Z" fill="#EFEFEF"/>
<g opacity="0.57">
<path d="M247.089 67.0708H129.488C124.416 67.0708 120.305 71.1861 120.305 76.2626C120.305 81.3391 124.416 85.4545 129.488 85.4545H247.089C252.161 85.4545 256.273 81.3391 256.273 76.2626C256.273 71.1861 252.161 67.0708 247.089 67.0708Z" fill="url(#paint2_linear_7081_19104)"/>
<path d="M247.089 113.074H129.488C124.416 113.074 120.305 117.189 120.305 122.266C120.305 127.342 124.416 131.458 129.488 131.458H247.089C252.161 131.458 256.273 127.342 256.273 122.266C256.273 117.189 252.161 113.074 247.089 113.074Z" fill="url(#paint3_linear_7081_19104)"/>
<path d="M247.089 159.075H129.488C124.416 159.075 120.305 163.191 120.305 168.267C120.305 173.344 124.416 177.459 129.488 177.459H247.089C252.161 177.459 256.273 173.344 256.273 168.267C256.273 163.191 252.161 159.075 247.089 159.075Z" fill="url(#paint4_linear_7081_19104)"/>
<path d="M247.089 205.076H129.488C124.416 205.076 120.305 209.191 120.305 214.268C120.305 219.345 124.416 223.46 129.488 223.46H247.089C252.161 223.46 256.273 219.345 256.273 214.268C256.273 209.191 252.161 205.076 247.089 205.076Z" fill="url(#paint5_linear_7081_19104)"/>
</g>
<path opacity="0.2" d="M286.018 49.5625V96.6062L241.539 52.0813C243.934 54.0109 246.922 55.0517 249.996 55.0273H285.642V49.5625H286.018Z" fill="url(#paint6_linear_7081_19104)"/>
<path opacity="0.45" d="M266.271 30.1526H92.625V19.0778C92.6259 15.412 94.081 11.8967 96.6705 9.30457C99.26 6.71248 102.772 5.25588 106.434 5.255H241.427L266.271 30.1526Z" fill="url(#paint7_linear_7081_19104)"/>
<path opacity="0.45" d="M285.653 245.251V255.999C285.652 259.664 284.197 263.18 281.608 265.772C279.018 268.364 275.506 269.821 271.844 269.822L200.542 269.765L140.847 269.713H106.434C104.616 269.712 102.817 269.352 101.138 268.654C99.4595 267.955 97.9351 266.932 96.6523 265.643C95.3695 264.354 94.3534 262.824 93.6623 261.141C92.9713 259.458 92.6188 257.655 92.6251 255.835V245.251H285.653Z" fill="url(#paint8_linear_7081_19104)"/>
<path d="M285.641 49.5626V55.0274H249.995C246.921 55.0519 243.933 54.011 241.538 52.0814L241.324 51.9165C239.784 50.635 238.545 49.03 237.694 47.2152C236.843 45.4005 236.401 43.4205 236.4 41.4157V5.25378H241.431L285.641 49.5626Z" fill="url(#paint9_linear_7081_19104)"/>
<path opacity="0.56" d="M313.313 256.001C313.383 259.914 311.9 263.695 309.189 266.516C306.478 269.336 302.761 270.966 298.852 271.047L239.375 272.164C236.694 266.125 235.314 259.589 235.324 252.98C235.324 226.885 256.473 205.717 282.541 205.717C293.506 205.703 304.13 209.524 312.578 216.52L313.313 256.001Z" fill="url(#paint10_linear_7081_19104)"/>
<path d="M346.447 252.99C346.447 254.001 346.419 254.984 346.333 255.959C344.917 279.277 326.588 297.998 303.497 300.052C302.078 300.192 300.652 300.259 299.226 300.253C298.793 300.253 298.361 300.253 297.928 300.225C290.587 300.037 283.392 298.137 276.914 294.676C270.056 290.963 264.209 285.626 259.884 279.131C256.235 273.648 253.786 267.455 252.698 260.957C252.232 258.412 252 255.83 252.004 253.243V252.99C252.004 226.87 273.133 205.72 299.226 205.72C303.328 205.715 307.414 206.25 311.377 207.309H311.407C321.457 209.999 330.339 215.935 336.675 224.194C343.011 232.454 346.446 242.576 346.447 252.99Z" fill="url(#paint11_linear_7081_19104)"/>
<path d="M322.184 241.609L294.695 268.37C294.336 268.72 293.905 268.989 293.432 269.156C292.959 269.323 292.455 269.385 291.956 269.338C291.456 269.291 290.973 269.136 290.54 268.883C290.106 268.63 289.733 268.287 289.445 267.875L277.361 250.603" stroke="white" stroke-width="12.0347" stroke-linecap="square" stroke-linejoin="round"/>
<path opacity="0.21" d="M328.813 216.159L259.885 279.147C256.236 273.664 253.787 267.47 252.699 260.972L311.379 207.318H311.408C317.765 209.01 323.695 212.022 328.813 216.159Z" fill="url(#paint12_linear_7081_19104)"/>
<path opacity="0.21" d="M346.448 252.99C346.448 254.001 346.42 254.984 346.334 255.959L297.925 300.238C290.585 300.05 283.39 298.15 276.912 294.689L342.694 234.534C345.183 240.367 346.46 246.647 346.448 252.99Z" fill="url(#paint13_linear_7081_19104)"/>
<g opacity="0.64">
<path d="M299.773 80.4439C301.225 80.3829 302.677 80.3367 304.129 80.279C304.165 80.2859 304.199 80.3051 304.223 80.3335C304.248 80.3619 304.262 80.3978 304.263 80.4352C304.264 80.4726 304.253 80.5094 304.231 80.5395C304.208 80.5696 304.176 80.5911 304.14 80.6007H304.129C302.675 80.5495 301.22 80.505 299.773 80.4439ZM308.482 80.1487C309.934 80.1025 311.386 80.0728 312.838 80.0332C312.947 80.0304 313.053 80.0711 313.132 80.1464C313.211 80.2218 313.257 80.3255 313.26 80.4349C313.263 80.5443 313.222 80.6503 313.147 80.7296C313.072 80.809 312.968 80.8551 312.859 80.858H312.838C311.386 80.8184 309.934 80.7904 308.482 80.7425C308.404 80.7425 308.33 80.7116 308.275 80.6565C308.22 80.6015 308.189 80.5268 308.189 80.4489C308.189 80.371 308.22 80.2963 308.275 80.2413C308.33 80.1862 308.404 80.1553 308.482 80.1553V80.1487ZM317.191 79.926L321.546 79.8402C321.626 79.8386 321.704 79.8526 321.778 79.8815C321.852 79.9103 321.919 79.9534 321.976 80.0083C322.034 80.0632 322.079 80.1289 322.111 80.2015C322.143 80.2741 322.16 80.3523 322.162 80.4316C322.163 80.5109 322.149 80.5897 322.121 80.6636C322.092 80.7374 322.049 80.8049 321.994 80.8621C321.939 80.9193 321.873 80.9652 321.801 80.997C321.728 81.0288 321.65 81.046 321.571 81.0477H321.546L317.191 80.9619C317.059 80.9544 316.935 80.8967 316.844 80.8005C316.753 80.7044 316.703 80.5771 316.703 80.4448C316.703 80.3125 316.753 80.1852 316.844 80.089C316.935 79.9929 317.059 79.9351 317.191 79.9277V79.926ZM325.902 79.7528L326.994 79.7363C327.368 79.7363 327.741 79.7413 328.115 79.7512C328.862 79.7776 329.607 79.838 330.351 79.9326C330.549 79.9575 330.73 80.0604 330.852 80.2184C330.975 80.3765 331.03 80.5769 331.005 80.7755C330.98 80.9741 330.877 81.1547 330.719 81.2775C330.562 81.4003 330.361 81.4553 330.163 81.4304H330.141C329.446 81.3204 328.747 81.2434 328.044 81.1994C327.692 81.1763 327.34 81.1615 326.988 81.1549L325.903 81.1368C325.72 81.1368 325.545 81.064 325.416 80.9346C325.286 80.8051 325.214 80.6295 325.214 80.4464C325.214 80.2633 325.286 80.0878 325.416 79.9583C325.545 79.8288 325.72 79.7561 325.903 79.7561L325.902 79.7528ZM334.739 80.8992C336.173 81.3526 337.562 81.9402 338.887 82.6543C339.072 82.7729 339.205 82.9571 339.261 83.1701C339.316 83.3831 339.289 83.6092 339.185 83.803C339.08 83.9967 338.907 84.1439 338.699 84.2151C338.491 84.2863 338.264 84.2761 338.063 84.1867H338.053C336.831 83.4987 335.552 82.9187 334.23 82.453C334.051 82.365 333.91 82.2151 333.834 82.0312C333.757 81.8473 333.749 81.6417 333.812 81.4526C333.875 81.2635 334.004 81.1035 334.176 81.0024C334.347 80.9013 334.55 80.8658 334.746 80.9025L334.739 80.8992ZM342.645 85.145C343.823 86.0899 344.914 87.1388 345.905 88.2791C346.07 88.4683 346.153 88.7153 346.136 88.9659C346.119 89.2165 346.003 89.45 345.814 89.6152C345.625 89.7803 345.378 89.8635 345.128 89.8465C344.878 89.8295 344.644 89.7137 344.479 89.5245L344.468 89.5113C343.569 88.4413 342.577 87.4543 341.502 86.562C341.315 86.4088 341.196 86.1877 341.172 85.9472C341.149 85.7067 341.221 85.4665 341.374 85.2795C341.527 85.0924 341.748 84.9739 341.988 84.9499C342.228 84.926 342.468 84.9985 342.655 85.1516L342.645 85.145ZM348.553 91.9443C349.321 93.2487 349.969 94.62 350.489 96.0416C350.579 96.2903 350.567 96.5648 350.456 96.8047C350.344 97.0446 350.142 97.2305 349.894 97.3215C349.646 97.4126 349.372 97.4014 349.132 97.2904C348.892 97.1794 348.705 96.9777 348.614 96.7295V96.7212C348.146 95.4062 347.561 94.1364 346.864 92.9274C346.742 92.7033 346.712 92.4406 346.781 92.195C346.849 91.9494 347.011 91.7401 347.231 91.6115C347.451 91.4828 347.712 91.4449 347.959 91.5058C348.207 91.5667 348.421 91.7216 348.556 91.9377L348.553 91.9443ZM351.644 100.426C351.769 101.173 351.861 101.924 351.919 102.679C351.948 103.056 351.968 103.434 351.98 103.812C351.993 104.188 351.994 104.576 351.994 104.932C351.994 105.203 351.886 105.462 351.695 105.653C351.505 105.844 351.246 105.951 350.976 105.951C350.706 105.951 350.447 105.844 350.256 105.653C350.066 105.462 349.958 105.203 349.958 104.932C349.958 104.563 349.958 104.225 349.949 103.873C349.939 103.522 349.92 103.177 349.894 102.831C349.842 102.137 349.76 101.446 349.647 100.758C349.612 100.497 349.68 100.233 349.837 100.021C349.993 99.8096 350.226 99.6673 350.485 99.6245C350.744 99.5816 351.01 99.6414 351.226 99.7914C351.442 99.9413 351.592 100.169 351.642 100.428L351.644 100.426ZM351.997 109.294V113.653C351.997 113.921 351.891 114.178 351.701 114.367C351.512 114.556 351.256 114.663 350.988 114.663C350.721 114.663 350.464 114.556 350.275 114.367C350.086 114.178 349.98 113.921 349.98 113.653V109.294C349.98 109.024 350.087 108.766 350.277 108.575C350.467 108.385 350.726 108.278 350.995 108.278C351.264 108.278 351.522 108.385 351.713 108.575C351.903 108.766 352.01 109.024 352.01 109.294H351.997ZM351.974 118.011L351.951 122.371C351.951 122.628 351.849 122.874 351.667 123.056C351.486 123.237 351.24 123.339 350.983 123.339C350.727 123.339 350.481 123.237 350.299 123.056C350.118 122.874 350.016 122.628 350.016 122.371L349.993 118.011C349.992 117.749 350.095 117.497 350.279 117.31C350.464 117.124 350.715 117.018 350.977 117.017C351.239 117.015 351.491 117.118 351.677 117.303C351.864 117.488 351.969 117.739 351.97 118.001L351.974 118.011ZM351.911 126.729L351.873 131.089C351.873 131.325 351.779 131.552 351.612 131.72C351.445 131.887 351.218 131.981 350.982 131.981C350.745 131.981 350.519 131.887 350.351 131.72C350.184 131.552 350.09 131.325 350.09 131.089L350.052 126.729C350.05 126.482 350.146 126.245 350.319 126.069C350.491 125.893 350.727 125.793 350.973 125.79C351.22 125.788 351.457 125.884 351.633 126.057C351.809 126.23 351.909 126.466 351.911 126.712V126.729ZM351.832 135.448L351.769 139.808C351.76 140.01 351.673 140.202 351.527 140.342C351.38 140.482 351.185 140.56 350.983 140.56C350.78 140.56 350.585 140.482 350.438 140.342C350.292 140.202 350.205 140.01 350.196 139.808L350.133 135.448C350.127 135.334 350.143 135.219 350.182 135.111C350.221 135.003 350.282 134.904 350.36 134.82C350.438 134.736 350.532 134.669 350.637 134.622C350.742 134.576 350.855 134.551 350.97 134.549C351.084 134.548 351.198 134.569 351.304 134.613C351.41 134.656 351.506 134.721 351.587 134.802C351.668 134.884 351.731 134.981 351.773 135.088C351.815 135.195 351.835 135.309 351.832 135.423C351.832 135.423 351.832 135.442 351.832 135.448ZM351.707 144.166L351.674 146.345L351.631 148.524C351.631 148.696 351.563 148.861 351.441 148.983C351.319 149.104 351.155 149.173 350.983 149.173C350.811 149.173 350.646 149.104 350.524 148.983C350.402 148.861 350.334 148.696 350.334 148.524L350.291 146.345L350.258 144.166C350.252 144.068 350.266 143.97 350.299 143.877C350.332 143.785 350.384 143.7 350.451 143.629C350.517 143.557 350.598 143.499 350.687 143.459C350.777 143.419 350.873 143.398 350.971 143.396C351.069 143.395 351.167 143.413 351.257 143.451C351.348 143.488 351.43 143.543 351.499 143.613C351.567 143.683 351.621 143.766 351.657 143.857C351.693 143.949 351.71 144.046 351.707 144.144C351.707 144.144 351.707 144.159 351.707 144.166ZM351.544 152.885L351.501 155.064L351.448 157.243C351.448 157.366 351.399 157.485 351.312 157.572C351.225 157.659 351.107 157.708 350.983 157.708C350.86 157.708 350.742 157.659 350.655 157.572C350.568 157.485 350.519 157.366 350.519 157.243L350.466 155.064L350.423 152.885C350.427 152.741 350.487 152.604 350.589 152.502C350.692 152.401 350.829 152.342 350.973 152.339C351.117 152.336 351.257 152.389 351.364 152.486C351.47 152.583 351.535 152.718 351.545 152.862C351.545 152.862 351.544 152.878 351.544 152.885ZM351.336 161.608C351.303 163.061 351.252 164.514 351.209 165.967C351.204 166.024 351.178 166.077 351.136 166.115C351.094 166.154 351.04 166.175 350.983 166.175C350.926 166.175 350.871 166.154 350.829 166.115C350.787 166.077 350.761 166.024 350.756 165.967C350.713 164.514 350.662 163.061 350.629 161.608C350.627 161.514 350.662 161.422 350.727 161.354C350.792 161.286 350.881 161.247 350.975 161.245C351.069 161.242 351.16 161.278 351.228 161.343C351.296 161.408 351.335 161.497 351.338 161.591C351.338 161.591 351.336 161.598 351.336 161.608ZM351.062 170.32L350.982 172.446L350.901 170.32C350.901 170.298 350.91 170.277 350.925 170.262C350.941 170.246 350.962 170.238 350.983 170.238C351.005 170.238 351.026 170.246 351.042 170.262C351.057 170.277 351.066 170.298 351.066 170.32C351.066 170.32 351.062 170.319 351.062 170.32Z" fill="#D29F5C"/>
</g>
<g opacity="0.64">
<path d="M83.3783 177.458C81.9265 177.519 80.4748 177.565 79.023 177.623C78.9991 177.629 78.9741 177.63 78.9498 177.625C78.9256 177.621 78.9027 177.611 78.8828 177.596C78.863 177.581 78.8467 177.562 78.8352 177.54C78.8237 177.518 78.8173 177.494 78.8164 177.469C78.8156 177.445 78.8202 177.42 78.8301 177.397C78.84 177.375 78.8549 177.355 78.8736 177.339C78.8923 177.322 78.9145 177.311 78.9383 177.304C78.9622 177.298 78.9872 177.297 79.0115 177.301H79.023C80.483 177.351 81.9347 177.397 83.3783 177.458ZM74.676 177.752C73.2243 177.798 71.7725 177.828 70.3208 177.867C70.2115 177.87 70.1056 177.829 70.0263 177.754C69.9471 177.679 69.9009 177.575 69.8981 177.466C69.8952 177.356 69.9359 177.25 70.0112 177.171C70.0864 177.091 70.1901 177.045 70.2993 177.042H70.3208C71.7725 177.082 73.2243 177.11 74.676 177.158C74.7538 177.158 74.8284 177.189 74.8834 177.244C74.9384 177.299 74.9693 177.374 74.9693 177.452C74.9693 177.529 74.9384 177.604 74.8834 177.659C74.8284 177.714 74.7538 177.745 74.676 177.745V177.752ZM65.9672 177.976L61.6119 178.062C61.452 178.065 61.2973 178.005 61.1819 177.894C61.0664 177.783 60.9998 177.631 60.9965 177.47C60.9932 177.31 61.0536 177.155 61.1644 177.04C61.2752 176.924 61.4273 176.858 61.5872 176.854H61.6119L65.9672 176.94C66.0991 176.948 66.2232 177.005 66.314 177.102C66.4048 177.198 66.4554 177.325 66.4554 177.457C66.4554 177.59 66.4048 177.717 66.314 177.813C66.2232 177.909 66.0991 177.967 65.9672 177.974V177.976ZM57.2567 178.148L56.1724 178.166C55.8198 178.172 55.4677 178.187 55.1161 178.21C54.4131 178.255 53.7138 178.332 53.0185 178.441C52.8301 178.455 52.6435 178.397 52.4958 178.279C52.3481 178.161 52.25 177.992 52.221 177.805C52.1919 177.618 52.2341 177.427 52.3391 177.27C52.4441 177.113 52.6042 177.001 52.7878 176.957H52.8092C53.5518 176.863 54.2972 176.803 55.0453 176.775C55.4188 176.762 55.7923 176.757 56.1658 176.76L57.2583 176.777C57.4412 176.777 57.6166 176.85 57.746 176.979C57.8753 177.109 57.948 177.284 57.948 177.467C57.948 177.65 57.8753 177.826 57.746 177.955C57.6166 178.085 57.4412 178.158 57.2583 178.158L57.2567 178.148ZM48.9384 179.464C47.6162 179.93 46.337 180.51 45.1154 181.198C45.0153 181.259 44.9036 181.3 44.7872 181.318C44.6707 181.336 44.552 181.329 44.438 181.3C44.3241 181.27 44.2173 181.218 44.1242 181.146C44.031 181.073 43.9534 180.983 43.896 180.88C43.8387 180.777 43.8027 180.664 43.7904 180.547C43.778 180.43 43.7895 180.311 43.8242 180.198C43.8588 180.086 43.9159 179.981 43.992 179.891C44.068 179.801 44.1615 179.728 44.2668 179.675H44.2767C45.6011 178.961 46.9897 178.373 48.4243 177.92C48.62 177.883 48.8224 177.919 48.994 178.02C49.1656 178.121 49.2948 178.281 49.3578 178.47C49.4207 178.659 49.413 178.865 49.3362 179.049C49.2594 179.233 49.1187 179.382 48.94 179.471L48.9384 179.464ZM41.6599 183.571C40.5851 184.463 39.5924 185.451 38.6938 186.52C38.6138 186.616 38.5159 186.694 38.4056 186.751C38.2954 186.809 38.1749 186.844 38.0511 186.855C37.9273 186.865 37.8026 186.852 37.6842 186.814C37.5657 186.776 37.4558 186.716 37.3607 186.636C37.2656 186.556 37.1871 186.458 37.1299 186.348C37.0726 186.237 37.0376 186.117 37.0269 185.993C37.0162 185.869 37.03 185.744 37.0675 185.625C37.1049 185.507 37.1654 185.397 37.2453 185.301L37.2569 185.288C38.2474 184.148 39.3382 183.099 40.5163 182.154C40.7031 182.001 40.9431 181.929 41.1833 181.953C41.4236 181.977 41.6445 182.095 41.7975 182.282C41.9505 182.469 42.0229 182.709 41.999 182.95C41.975 183.19 41.8566 183.411 41.6698 183.565L41.6599 183.571ZM36.2978 189.946C35.601 191.155 35.0152 192.425 34.5478 193.74C34.5038 193.864 34.4358 193.978 34.3479 194.075C34.2599 194.173 34.1536 194.252 34.0351 194.308C33.9166 194.364 33.7882 194.397 33.6572 194.403C33.5261 194.41 33.3951 194.391 33.2716 194.347C33.148 194.302 33.0343 194.234 32.937 194.146C32.8397 194.058 32.7607 193.952 32.7044 193.833C32.6482 193.715 32.6159 193.586 32.6093 193.455C32.6027 193.324 32.6219 193.193 32.666 193.069V193.061C33.1863 191.639 33.8344 190.268 34.6022 188.963C34.7375 188.747 34.9515 188.592 35.1989 188.532C35.4463 188.471 35.7076 188.509 35.9276 188.637C36.1475 188.766 36.3088 188.975 36.3773 189.221C36.4458 189.466 36.4161 189.729 36.2945 189.953L36.2978 189.946ZM33.5047 197.773C33.3949 198.461 33.3125 199.152 33.2575 199.847C33.2323 200.194 33.2142 200.542 33.2032 200.889C33.1933 201.241 33.1933 201.577 33.1933 201.948C33.1933 202.218 33.0861 202.477 32.8953 202.668C32.7044 202.859 32.4456 202.967 32.1758 202.967C31.9059 202.967 31.6471 202.859 31.4562 202.668C31.2654 202.477 31.1582 202.218 31.1582 201.948C31.1582 201.592 31.1582 201.203 31.1714 200.828C31.1846 200.454 31.2044 200.073 31.2324 199.695C31.2906 198.941 31.3823 198.19 31.5075 197.442C31.523 197.305 31.5661 197.173 31.634 197.054C31.702 196.935 31.7935 196.831 31.903 196.748C32.0125 196.665 32.1376 196.606 32.2708 196.573C32.404 196.54 32.5425 196.534 32.6779 196.557C32.8132 196.579 32.9426 196.629 33.0582 196.703C33.1737 196.777 33.273 196.874 33.3501 196.987C33.4271 197.101 33.4803 197.229 33.5063 197.364C33.5323 197.499 33.5306 197.638 33.5014 197.772L33.5047 197.773ZM33.1916 206.309V210.669C33.1916 210.937 33.0854 211.194 32.8963 211.383C32.7071 211.572 32.4506 211.679 32.1832 211.679C31.9157 211.679 31.6592 211.572 31.4701 211.383C31.2809 211.194 31.1747 210.937 31.1747 210.669V206.309C31.1747 206.04 31.2816 205.782 31.472 205.591C31.6624 205.4 31.9205 205.293 32.1898 205.293C32.459 205.293 32.7172 205.4 32.9075 205.591C33.0979 205.782 33.2048 206.04 33.2048 206.309H33.1916ZM33.1669 215.025L33.1439 219.385C33.1439 219.642 33.0419 219.888 32.8605 220.07C32.6791 220.251 32.4331 220.353 32.1766 220.353C31.92 220.353 31.674 220.251 31.4926 220.07C31.3112 219.888 31.2093 219.642 31.2093 219.385L31.1862 215.025C31.1849 214.763 31.2878 214.511 31.4723 214.324C31.6568 214.138 31.9078 214.032 32.17 214.031C32.4322 214.03 32.6842 214.133 32.8706 214.317C33.0569 214.502 33.1623 214.753 33.1636 215.016L33.1669 215.025ZM33.106 223.745L33.068 228.104C33.068 228.341 32.9741 228.568 32.8069 228.735C32.6398 228.903 32.413 228.997 32.1766 228.997C31.9401 228.997 31.7134 228.903 31.5462 228.735C31.379 228.568 31.2851 228.341 31.2851 228.104L31.2472 223.745C31.2461 223.623 31.2691 223.501 31.3148 223.388C31.3605 223.275 31.428 223.172 31.5136 223.084C31.5991 222.997 31.701 222.928 31.8133 222.88C31.9256 222.832 32.0463 222.807 32.1683 222.806C32.2904 222.805 32.4114 222.828 32.5246 222.874C32.6378 222.92 32.7409 222.987 32.8279 223.073C32.915 223.158 32.9844 223.26 33.0321 223.373C33.0798 223.485 33.1049 223.606 33.106 223.728C33.106 223.728 33.106 223.741 33.106 223.745ZM33.0268 232.462L32.9642 236.822C32.955 237.025 32.868 237.216 32.7215 237.356C32.5749 237.496 32.3801 237.574 32.1774 237.574C31.9747 237.574 31.7799 237.496 31.6333 237.356C31.4868 237.216 31.3998 237.025 31.3906 236.822L31.3279 232.462C31.3339 232.243 31.4243 232.034 31.5804 231.88C31.7365 231.725 31.9462 231.637 32.1655 231.634C32.3849 231.631 32.597 231.713 32.7575 231.863C32.9181 232.012 33.0145 232.218 33.0268 232.438C33.0268 232.438 33.0268 232.456 33.0268 232.462ZM32.9016 241.182L32.8687 243.361L32.8258 245.54C32.8258 245.712 32.7575 245.877 32.6359 245.999C32.5143 246.12 32.3494 246.189 32.1774 246.189C32.0054 246.189 31.8405 246.12 31.7189 245.999C31.5973 245.877 31.529 245.712 31.529 245.54L31.4861 243.361L31.4532 241.182C31.4589 240.995 31.5363 240.818 31.6693 240.686C31.8022 240.555 31.9806 240.481 32.1672 240.478C32.3537 240.475 32.5342 240.545 32.671 240.672C32.8078 240.799 32.8904 240.974 32.9016 241.16C32.9016 241.16 32.9016 241.175 32.9016 241.182ZM32.7385 249.899L32.6957 252.078L32.6429 254.257C32.6429 254.38 32.594 254.499 32.5068 254.586C32.4197 254.673 32.3015 254.722 32.1782 254.722C32.055 254.722 31.9368 254.673 31.8496 254.586C31.7625 254.499 31.7135 254.38 31.7135 254.257L31.6608 252.078L31.618 249.899C31.6126 249.823 31.6227 249.747 31.6477 249.675C31.6727 249.603 31.7121 249.537 31.7634 249.48C31.8148 249.424 31.877 249.379 31.9464 249.347C32.0157 249.316 32.0908 249.299 32.1669 249.297C32.2431 249.296 32.3187 249.309 32.3893 249.338C32.4599 249.367 32.524 249.409 32.5776 249.464C32.6312 249.518 32.6732 249.582 32.7012 249.653C32.7291 249.724 32.7424 249.8 32.7401 249.876C32.7401 249.876 32.7385 249.893 32.7385 249.899ZM32.5309 258.617C32.4979 260.07 32.4468 261.523 32.404 262.976C32.3991 263.033 32.3732 263.086 32.3312 263.125C32.2892 263.163 32.2344 263.185 32.1774 263.185C32.1204 263.185 32.0655 263.163 32.0236 263.125C31.9816 263.086 31.9557 263.033 31.9508 262.976C31.908 261.523 31.8569 260.07 31.8239 258.617C31.8218 258.523 31.857 258.432 31.9219 258.364C31.9868 258.296 32.076 258.256 32.17 258.254C32.2639 258.252 32.3549 258.287 32.4229 258.352C32.4909 258.417 32.5303 258.506 32.5325 258.6C32.5325 258.6 32.5309 258.612 32.5309 258.617ZM32.259 267.341L32.1782 269.467L32.0975 267.341C32.0975 267.319 32.1062 267.298 32.1216 267.283C32.1371 267.267 32.158 267.258 32.1799 267.258C32.2017 267.258 32.2227 267.267 32.2381 267.283C32.2536 267.298 32.2623 267.319 32.2623 267.341H32.259Z" fill="#D29F5C"/>
</g>
<g opacity="0.64">
<path d="M89.7773 343.112L94.1326 343.012C94.1595 343.012 94.1852 343.022 94.2042 343.041C94.2232 343.06 94.2339 343.086 94.2339 343.113C94.2339 343.14 94.2232 343.166 94.2042 343.185C94.1852 343.204 94.1595 343.215 94.1326 343.215L89.7773 343.112ZM98.4878 342.921L102.843 342.838C102.916 342.837 102.986 342.865 103.038 342.915C103.09 342.966 103.12 343.035 103.122 343.107C103.123 343.18 103.095 343.25 103.045 343.302C102.995 343.355 102.925 343.385 102.853 343.386H102.843L98.4878 343.304C98.4371 343.304 98.3885 343.283 98.3527 343.248C98.3168 343.212 98.2967 343.163 98.2967 343.112C98.2967 343.062 98.3168 343.013 98.3527 342.977C98.3885 342.941 98.4371 342.921 98.4878 342.921ZM107.197 342.763L111.552 342.695C111.609 342.691 111.666 342.698 111.72 342.717C111.774 342.735 111.824 342.765 111.866 342.803C111.908 342.842 111.942 342.888 111.965 342.94C111.989 342.993 112.002 343.049 112.002 343.106C112.003 343.163 111.993 343.22 111.971 343.273C111.949 343.326 111.916 343.373 111.876 343.413C111.835 343.453 111.786 343.484 111.732 343.504C111.679 343.525 111.622 343.534 111.565 343.531H111.554L107.198 343.464C107.105 343.464 107.016 343.427 106.951 343.361C106.885 343.295 106.848 343.206 106.848 343.113C106.848 343.02 106.885 342.931 106.951 342.865C107.016 342.8 107.105 342.763 107.198 342.763H107.197ZM115.905 342.627L120.261 342.57C120.405 342.568 120.544 342.623 120.647 342.724C120.751 342.824 120.81 342.962 120.812 343.107C120.814 343.251 120.758 343.39 120.658 343.494C120.557 343.597 120.42 343.656 120.276 343.658H120.261L115.905 343.601C115.782 343.593 115.665 343.539 115.58 343.449C115.495 343.358 115.448 343.239 115.448 343.115C115.448 342.991 115.495 342.871 115.58 342.781C115.665 342.691 115.782 342.636 115.905 342.629V342.627ZM124.616 342.515L128.971 342.462C129.057 342.461 129.142 342.477 129.221 342.509C129.3 342.541 129.373 342.588 129.434 342.647C129.495 342.707 129.544 342.778 129.578 342.857C129.611 342.936 129.629 343.02 129.63 343.106C129.631 343.191 129.616 343.276 129.584 343.356C129.552 343.435 129.505 343.508 129.446 343.569C129.386 343.63 129.315 343.679 129.236 343.713C129.158 343.746 129.073 343.764 128.988 343.765H128.971L124.616 343.713C124.463 343.705 124.319 343.638 124.213 343.527C124.108 343.416 124.049 343.268 124.049 343.115C124.049 342.961 124.108 342.814 124.213 342.703C124.319 342.591 124.463 342.525 124.616 342.517V342.515ZM133.325 342.41L137.68 342.372C137.877 342.37 138.066 342.446 138.206 342.584C138.347 342.722 138.426 342.91 138.428 343.107C138.43 343.304 138.353 343.494 138.216 343.634C138.078 343.775 137.89 343.854 137.693 343.856H137.68L133.325 343.818C133.139 343.818 132.96 343.744 132.828 343.612C132.697 343.481 132.623 343.302 132.623 343.116C132.623 342.929 132.697 342.75 132.828 342.619C132.96 342.487 133.139 342.413 133.325 342.413V342.41ZM142.039 342.334L146.394 342.296C146.51 342.28 146.628 342.289 146.74 342.322C146.852 342.356 146.956 342.413 147.044 342.489C147.132 342.566 147.204 342.66 147.253 342.767C147.302 342.873 147.328 342.988 147.329 343.105C147.33 343.223 147.306 343.339 147.259 343.446C147.212 343.553 147.142 343.649 147.055 343.727C146.968 343.805 146.866 343.864 146.754 343.899C146.643 343.935 146.525 343.946 146.409 343.932H146.394L142.039 343.894C141.838 343.885 141.649 343.799 141.511 343.654C141.372 343.508 141.295 343.315 141.295 343.115C141.295 342.914 141.372 342.721 141.511 342.576C141.649 342.431 141.838 342.345 142.039 342.335V342.334ZM150.744 342.256L155.099 342.231C155.215 342.231 155.33 342.253 155.437 342.297C155.544 342.34 155.641 342.405 155.724 342.486C155.806 342.568 155.871 342.664 155.916 342.771C155.961 342.878 155.984 342.992 155.985 343.108C155.986 343.224 155.964 343.339 155.92 343.446C155.876 343.553 155.812 343.651 155.731 343.733C155.649 343.815 155.553 343.881 155.446 343.926C155.339 343.971 155.225 343.994 155.109 343.995H155.099L150.744 343.97C150.517 343.97 150.3 343.88 150.139 343.719C149.979 343.559 149.889 343.341 149.889 343.114C149.889 342.887 149.979 342.669 150.139 342.509C150.3 342.348 150.517 342.258 150.744 342.258V342.256ZM159.453 342.208L163.808 342.185C163.93 342.185 164.051 342.208 164.163 342.254C164.276 342.3 164.379 342.368 164.465 342.454C164.552 342.539 164.62 342.641 164.668 342.753C164.715 342.866 164.739 342.986 164.74 343.108C164.741 343.23 164.717 343.351 164.671 343.464C164.625 343.576 164.558 343.679 164.472 343.766C164.386 343.852 164.285 343.921 164.172 343.968C164.06 344.016 163.94 344.04 163.818 344.041H163.808L159.453 344.018C159.213 344.018 158.982 343.922 158.812 343.752C158.642 343.582 158.547 343.351 158.547 343.111C158.547 342.87 158.642 342.639 158.812 342.469C158.982 342.299 159.213 342.203 159.453 342.203V342.208ZM168.163 342.162L172.519 342.139C172.77 342.148 173.008 342.254 173.183 342.435C173.358 342.615 173.456 342.857 173.458 343.108C173.459 343.36 173.363 343.602 173.19 343.785C173.017 343.967 172.78 344.076 172.529 344.087H172.524L168.168 344.064C167.923 344.054 167.692 343.949 167.522 343.772C167.352 343.595 167.257 343.359 167.257 343.113C167.257 342.868 167.352 342.631 167.522 342.454C167.692 342.277 167.923 342.172 168.168 342.162H168.163ZM176.872 342.129H181.228C181.49 342.129 181.741 342.233 181.927 342.419C182.112 342.605 182.216 342.856 182.216 343.119C182.216 343.381 182.112 343.633 181.927 343.819C181.741 344.004 181.49 344.109 181.228 344.109H176.872C176.631 344.081 176.409 343.965 176.248 343.784C176.087 343.602 175.998 343.368 175.998 343.125C175.998 342.883 176.087 342.648 176.248 342.467C176.409 342.286 176.631 342.17 176.872 342.142V342.129ZM185.583 342.114H189.938C190.205 342.114 190.46 342.22 190.649 342.409C190.837 342.598 190.943 342.854 190.943 343.121C190.943 343.387 190.837 343.643 190.649 343.832C190.46 344.021 190.205 344.127 189.938 344.127H185.583C185.325 344.116 185.082 344.006 184.903 343.82C184.724 343.634 184.625 343.386 184.625 343.128C184.625 342.87 184.724 342.622 184.903 342.436C185.082 342.249 185.325 342.14 185.583 342.129V342.114ZM194.292 342.098H198.647C198.91 342.108 199.158 342.22 199.34 342.41C199.522 342.6 199.624 342.853 199.624 343.116C199.624 343.38 199.522 343.633 199.34 343.823C199.158 344.012 198.91 344.124 198.647 344.135H194.292C194.023 344.135 193.765 344.028 193.575 343.838C193.385 343.648 193.278 343.39 193.278 343.121C193.278 342.851 193.385 342.593 193.575 342.403C193.765 342.213 194.023 342.106 194.292 342.106V342.098ZM203.009 342.101H207.364C207.63 342.101 207.885 342.207 208.073 342.395C208.261 342.583 208.367 342.839 208.367 343.105C208.367 343.371 208.261 343.626 208.073 343.815C207.885 344.003 207.63 344.109 207.364 344.109H203.009C202.741 344.109 202.484 344.002 202.294 343.812C202.105 343.623 201.999 343.366 201.999 343.097C201.999 342.829 202.105 342.572 202.294 342.382C202.484 342.193 202.741 342.086 203.009 342.086V342.101ZM211.711 342.118H216.066C216.328 342.118 216.58 342.222 216.765 342.408C216.951 342.593 217.055 342.845 217.055 343.107C217.055 343.37 216.951 343.622 216.765 343.807C216.58 343.993 216.328 344.097 216.066 344.097H211.711C211.447 344.097 211.194 343.992 211.008 343.805C210.821 343.619 210.716 343.366 210.716 343.102C210.716 342.838 210.821 342.584 211.008 342.398C211.194 342.211 211.447 342.106 211.711 342.106V342.118ZM220.42 342.132L224.775 342.149C225.03 342.149 225.275 342.251 225.456 342.431C225.637 342.612 225.738 342.857 225.738 343.113C225.738 343.369 225.637 343.614 225.456 343.795C225.275 343.976 225.03 344.077 224.775 344.077L220.42 344.094C220.16 344.094 219.911 343.991 219.728 343.807C219.544 343.623 219.441 343.374 219.441 343.114C219.441 342.854 219.544 342.605 219.728 342.421C219.911 342.237 220.16 342.134 220.42 342.134V342.132ZM229.13 342.172L233.485 342.195C233.728 342.195 233.962 342.292 234.133 342.464C234.305 342.636 234.402 342.869 234.402 343.112C234.402 343.356 234.305 343.589 234.133 343.761C233.962 343.933 233.728 344.029 233.485 344.029L229.13 344.053C229.007 344.053 228.885 344.029 228.77 343.983C228.656 343.936 228.552 343.867 228.465 343.781C228.377 343.694 228.307 343.59 228.259 343.477C228.212 343.363 228.187 343.241 228.186 343.117C228.185 342.994 228.209 342.871 228.256 342.757C228.302 342.643 228.371 342.539 228.458 342.451C228.544 342.363 228.648 342.293 228.761 342.246C228.875 342.198 228.997 342.173 229.12 342.172H229.13ZM237.839 342.22L242.181 342.241H242.207C242.431 342.251 242.643 342.347 242.798 342.509C242.953 342.671 243.04 342.887 243.04 343.111C243.04 343.336 242.953 343.552 242.798 343.714C242.643 343.876 242.431 343.972 242.207 343.982L237.839 344.008C237.602 344.009 237.375 343.916 237.206 343.75C237.038 343.583 236.942 343.356 236.941 343.119C236.94 342.882 237.033 342.654 237.199 342.485C237.366 342.317 237.592 342.221 237.829 342.22H237.839ZM246.301 341.733C247.652 341.408 248.962 340.927 250.203 340.3C250.389 340.215 250.601 340.206 250.795 340.273C250.989 340.34 251.149 340.48 251.243 340.662C251.337 340.844 251.357 341.056 251.3 341.253C251.242 341.45 251.112 341.617 250.934 341.72C249.593 342.428 248.174 342.977 246.706 343.358C246.493 343.409 246.269 343.374 246.081 343.261C245.893 343.148 245.757 342.966 245.702 342.754C245.646 342.542 245.677 342.317 245.785 342.126C245.894 341.936 246.073 341.796 246.284 341.737L246.301 341.733ZM253.685 338.009C254.757 337.109 255.723 336.09 256.563 334.97C256.684 334.837 256.849 334.753 257.028 334.736C257.207 334.718 257.385 334.767 257.53 334.875C257.674 334.982 257.773 335.139 257.807 335.315C257.842 335.491 257.81 335.674 257.717 335.828C256.831 337.052 255.807 338.17 254.667 339.16C254.591 339.226 254.503 339.277 254.408 339.309C254.313 339.341 254.212 339.353 254.112 339.346C254.012 339.339 253.914 339.312 253.825 339.267C253.735 339.221 253.655 339.159 253.59 339.083C253.525 339.006 253.475 338.918 253.444 338.822C253.413 338.727 253.401 338.626 253.41 338.526C253.418 338.425 253.446 338.328 253.492 338.239C253.538 338.149 253.601 338.07 253.678 338.005L253.685 338.009ZM258.683 331.365C259.253 330.081 259.672 328.736 259.933 327.356C259.962 327.193 260.054 327.048 260.189 326.953C260.325 326.858 260.492 326.821 260.655 326.85C260.818 326.879 260.963 326.971 261.057 327.106C261.152 327.242 261.19 327.409 261.161 327.572C260.918 329.058 260.504 330.51 259.927 331.901C259.855 332.062 259.723 332.19 259.559 332.256C259.395 332.321 259.211 332.32 259.048 332.252C258.885 332.184 258.754 332.055 258.685 331.892C258.615 331.73 258.612 331.546 258.676 331.381L258.683 331.365ZM260.264 323.122L260.319 318.762C260.319 318.625 260.373 318.494 260.47 318.397C260.567 318.3 260.698 318.246 260.835 318.246C260.971 318.246 261.103 318.3 261.199 318.397C261.296 318.494 261.35 318.625 261.35 318.762L261.405 323.122C261.41 323.199 261.399 323.277 261.373 323.35C261.347 323.423 261.307 323.49 261.254 323.547C261.202 323.604 261.138 323.649 261.068 323.681C260.997 323.712 260.921 323.729 260.843 323.73C260.766 323.731 260.689 323.716 260.618 323.686C260.546 323.657 260.481 323.613 260.427 323.557C260.373 323.502 260.331 323.436 260.304 323.364C260.276 323.291 260.263 323.214 260.266 323.137C260.266 323.137 260.264 323.125 260.264 323.122ZM260.385 314.403L260.452 310.043C260.452 309.942 260.493 309.845 260.564 309.773C260.636 309.702 260.733 309.661 260.834 309.661C260.935 309.661 261.032 309.702 261.104 309.773C261.175 309.845 261.215 309.942 261.215 310.043L261.283 314.403C261.285 314.522 261.239 314.638 261.156 314.723C261.073 314.809 260.96 314.859 260.84 314.86C260.721 314.862 260.606 314.817 260.52 314.734C260.434 314.651 260.385 314.537 260.383 314.418C260.383 314.418 260.385 314.408 260.385 314.403ZM260.518 305.685L260.601 301.326C260.606 301.268 260.632 301.215 260.674 301.176C260.716 301.137 260.771 301.116 260.829 301.116C260.886 301.116 260.942 301.137 260.984 301.176C261.026 301.215 261.052 301.268 261.057 301.326L261.14 305.685C261.143 305.728 261.138 305.771 261.125 305.811C261.111 305.852 261.09 305.889 261.061 305.921C261.032 305.953 260.998 305.979 260.959 305.996C260.92 306.014 260.878 306.024 260.835 306.025C260.792 306.025 260.75 306.017 260.71 306.001C260.671 305.985 260.635 305.96 260.605 305.93C260.576 305.899 260.553 305.862 260.538 305.822C260.523 305.782 260.516 305.739 260.518 305.697C260.518 305.697 260.518 305.688 260.518 305.685ZM260.683 296.968L260.78 292.608C260.78 292.595 260.785 292.584 260.794 292.575C260.803 292.566 260.815 292.561 260.827 292.561C260.84 292.561 260.852 292.566 260.86 292.575C260.869 292.584 260.874 292.595 260.874 292.608L260.971 296.968C260.971 297.006 260.956 297.042 260.929 297.069C260.903 297.096 260.866 297.111 260.828 297.111C260.79 297.111 260.754 297.096 260.727 297.069C260.7 297.042 260.685 297.006 260.685 296.968C260.685 296.968 260.683 296.969 260.683 296.968Z" fill="#D29F5C"/>
</g>
<path d="M174.59 24.5512C172.673 44.3287 163.334 103.059 119.134 124.659C118.717 124.877 118.298 125.077 117.866 125.278C117.827 125.302 117.785 125.323 117.743 125.341C117.703 125.317 117.662 125.296 117.619 125.278C72.3431 104.181 62.8334 44.5102 60.917 24.5578C60.7366 22.7015 61.2011 20.8397 62.2321 19.2863C63.2632 17.7328 64.7979 16.5828 66.5773 16.0299L112.255 1.72711L117.621 0.0545127L117.683 0.0396729L168.911 16.0283C170.692 16.5795 172.229 17.7278 173.263 19.28C174.297 20.8323 174.766 22.6938 174.59 24.5512Z" fill="url(#paint14_linear_7081_19104)"/>
<path d="M153.919 24.1223C153.161 31.9393 151.227 45.9369 146.364 61.269C144.556 67.0048 142.397 72.6237 139.899 78.0939C131.771 95.7897 119.1 112.958 99.3625 122.599C98.9522 122.812 98.5386 123.01 98.1151 123.208C98.0761 123.231 98.0354 123.252 97.9932 123.269C97.9548 123.245 97.9146 123.225 97.8729 123.208C95.1586 121.941 92.5242 120.508 89.9847 118.919C88.1973 117.804 86.4748 116.625 84.8171 115.381C81.5588 112.937 78.494 110.245 75.6501 107.328C74.189 105.832 72.7889 104.293 71.4498 102.709C68.0046 98.6108 64.8976 94.239 62.1593 89.6371C57.3492 81.604 53.663 73.1157 50.837 64.8946C46.7174 52.911 44.4236 41.4965 43.158 32.8943C42.6637 29.4832 42.3176 26.5141 42.0886 24.1239C41.9102 22.2973 42.3668 20.465 43.3811 18.9361C44.3954 17.4072 45.9055 16.2753 47.6566 15.7313L57.9985 12.4933L92.6031 1.66104L97.8762 0.011544L97.9372 -0.0032959L148.338 15.728C150.091 16.2714 151.603 17.403 152.619 18.932C153.636 20.461 154.095 22.294 153.919 24.1223Z" fill="url(#paint15_linear_7081_19104)"/>
<path d="M98.0071 92.9445C116.757 92.9445 131.958 77.729 131.958 58.9599C131.958 40.1907 116.757 24.9752 98.0071 24.9752C79.2568 24.9752 64.0566 40.1907 64.0566 58.9599C64.0566 77.729 79.2568 92.9445 98.0071 92.9445Z" fill="url(#paint16_linear_7081_19104)"/>
<path d="M98.0058 87.4005C113.697 87.4005 126.418 74.6672 126.418 58.9598C126.418 43.2525 113.697 30.5192 98.0058 30.5192C82.3143 30.5192 69.5938 43.2525 69.5938 58.9598C69.5938 74.6672 82.3143 87.4005 98.0058 87.4005Z" fill="white"/>
<path d="M107.25 75.6541H88.7614C87.2707 75.6541 85.841 75.0613 84.7869 74.0062C83.7328 72.951 83.1406 71.5199 83.1406 70.0277V69.3448C83.1406 66.212 84.3839 63.2076 86.5968 60.9924C88.8098 58.7772 91.8112 57.5327 94.9408 57.5327H101.072C102.622 57.5327 104.156 57.8382 105.588 58.4318C107.02 59.0255 108.321 59.8955 109.416 60.9924C110.512 62.0892 111.381 63.3914 111.974 64.8245C112.567 66.2576 112.873 67.7936 112.873 69.3448V70.0277C112.873 70.7667 112.727 71.4984 112.445 72.1812C112.162 72.8639 111.748 73.4843 111.226 74.0067C110.704 74.5292 110.084 74.9436 109.402 75.2263C108.72 75.5089 107.988 75.6543 107.25 75.6541Z" fill="url(#paint17_linear_7081_19104)"/>
<path d="M98.0061 53.6466C102.628 53.6466 106.375 49.8957 106.375 45.2688C106.375 40.6419 102.628 36.891 98.0061 36.891C93.3838 36.891 89.6367 40.6419 89.6367 45.2688C89.6367 49.8957 93.3838 53.6466 98.0061 53.6466Z" fill="url(#paint18_linear_7081_19104)"/>
</g>
<defs>
<linearGradient id="paint0_linear_7081_19104" x1="39.8256" y1="351.244" x2="66.5372" y2="297.877" gradientUnits="userSpaceOnUse">
<stop stop-color="#D29F5C"/>
<stop offset="1" stop-color="#CCA16A"/>
</linearGradient>
<linearGradient id="paint1_linear_7081_19104" x1="2364.92" y1="338.41" x2="2300.56" y2="338.41" gradientUnits="userSpaceOnUse">
<stop stop-color="#D29F5C"/>
<stop offset="1" stop-color="#CCA16A"/>
</linearGradient>
<linearGradient id="paint2_linear_7081_19104" x1="291.85" y1="76.2635" x2="94.3034" y2="76.2635" gradientUnits="userSpaceOnUse">
<stop stop-color="#E2E0DE"/>
<stop offset="1" stop-color="#BEBAB4"/>
</linearGradient>
<linearGradient id="paint3_linear_7081_19104" x1="291.85" y1="122.265" x2="94.3034" y2="122.265" gradientUnits="userSpaceOnUse">
<stop stop-color="#E2E0DE"/>
<stop offset="1" stop-color="#BEBAB4"/>
</linearGradient>
<linearGradient id="paint4_linear_7081_19104" x1="291.85" y1="168.266" x2="94.3034" y2="168.266" gradientUnits="userSpaceOnUse">
<stop stop-color="#E2E0DE"/>
<stop offset="1" stop-color="#BEBAB4"/>
</linearGradient>
<linearGradient id="paint5_linear_7081_19104" x1="291.85" y1="214.269" x2="94.3034" y2="214.269" gradientUnits="userSpaceOnUse">
<stop stop-color="#E2E0DE"/>
<stop offset="1" stop-color="#BEBAB4"/>
</linearGradient>
<linearGradient id="paint6_linear_7081_19104" x1="283.704" y1="92.0882" x2="257.812" y2="38.5725" gradientUnits="userSpaceOnUse">
<stop stop-color="#E2E0DE"/>
<stop offset="1" stop-color="#BEBAB4"/>
</linearGradient>
<linearGradient id="paint7_linear_7081_19104" x1="280.515" y1="17.7021" x2="-93.2925" y2="17.7021" gradientUnits="userSpaceOnUse">
<stop stop-color="#E2E0DE"/>
<stop offset="1" stop-color="#BEBAB4"/>
</linearGradient>
<linearGradient id="paint8_linear_7081_19104" x1="280.515" y1="257.538" x2="-93.2924" y2="257.538" gradientUnits="userSpaceOnUse">
<stop stop-color="#E2E0DE"/>
<stop offset="1" stop-color="#BEBAB4"/>
</linearGradient>
<linearGradient id="paint9_linear_7081_19104" x1="226.967" y1="64.2283" x2="273.595" y2="17.6472" gradientUnits="userSpaceOnUse">
<stop stop-color="#E2E0DE"/>
<stop offset="1" stop-color="#BEBAB4"/>
</linearGradient>
<linearGradient id="paint10_linear_7081_19104" x1="275.289" y1="264.246" x2="273.108" y2="217.17" gradientUnits="userSpaceOnUse">
<stop stop-color="#E2E0DE"/>
<stop offset="1" stop-color="#BEBAB4"/>
</linearGradient>
<linearGradient id="paint11_linear_7081_19104" x1="299.226" y1="361.714" x2="299.226" y2="191.724" gradientUnits="userSpaceOnUse">
<stop stop-color="#B08B5B"/>
<stop offset="0.25" stop-color="#BC9460"/>
<stop offset="0.74" stop-color="#D0A369"/>
<stop offset="1" stop-color="#C5A377"/>
</linearGradient>
<linearGradient id="paint12_linear_7081_19104" x1="333.023" y1="195.736" x2="262.282" y2="267.273" gradientUnits="userSpaceOnUse">
<stop stop-color="#FEFDFC"/>
<stop offset="1" stop-color="#FCE4C4" stop-opacity="0.1"/>
</linearGradient>
<linearGradient id="paint13_linear_7081_19104" x1="359.07" y1="227.255" x2="291.536" y2="295.55" gradientUnits="userSpaceOnUse">
<stop stop-color="#FEFDFC"/>
<stop offset="1" stop-color="#FCE4C4" stop-opacity="0.1"/>
</linearGradient>
<linearGradient id="paint14_linear_7081_19104" x1="117.756" y1="12.0513" x2="117.756" y2="154.096" gradientUnits="userSpaceOnUse">
<stop stop-color="#E2E0DE" stop-opacity="0.4"/>
<stop offset="1" stop-color="#BEBAB4"/>
</linearGradient>
<linearGradient id="paint15_linear_7081_19104" x1="98.0047" y1="179.505" x2="98.0047" y2="34.8704" gradientUnits="userSpaceOnUse">
<stop stop-color="#FAA22F"/>
<stop offset="1" stop-color="#FBA637"/>
</linearGradient>
<linearGradient id="paint16_linear_7081_19104" x1="98.0071" y1="128.57" x2="98.0071" y2="28.2412" gradientUnits="userSpaceOnUse">
<stop stop-color="#FAA22F"/>
<stop offset="1" stop-color="#FBAB43"/>
</linearGradient>
<linearGradient id="paint17_linear_7081_19104" x1="-138.463" y1="-54.5672" x2="-138.463" y2="-154.896" gradientUnits="userSpaceOnUse">
<stop stop-color="#FAA22F"/>
<stop offset="1" stop-color="#FBAB43"/>
</linearGradient>
<linearGradient id="paint18_linear_7081_19104" x1="98.0061" y1="128.57" x2="98.0061" y2="28.241" gradientUnits="userSpaceOnUse">
<stop stop-color="#FAA22F"/>
<stop offset="1" stop-color="#FBAB43"/>
</linearGradient>
<clipPath id="clip0_7081_19104">
<rect width="352" height="376" fill="white"/>
</clipPath>
</defs>
</svg>
