<svg width="24" height="24" viewBox="0 0 24 24" fill="none" xmlns="http://www.w3.org/2000/svg">
<path d="M17.4181 4.41043H5.38812L7.26813 2.53043C7.55813 2.24043 7.55813 1.76043 7.26813 1.47043C6.97813 1.18043 6.49813 1.18043 6.20813 1.47043L3.04813 4.63043C2.97813 4.70043 2.92813 4.78043 2.88813 4.87043C2.84813 4.96043 2.82812 5.06043 2.82812 5.16043C2.82812 5.26043 2.84813 5.36043 2.88813 5.45043C2.92813 5.54043 2.97813 5.62043 3.04813 5.69043L6.20813 8.85043C6.35813 9.00043 6.54812 9.07043 6.73812 9.07043C6.92812 9.07043 7.11812 9.00043 7.26813 8.85043C7.55813 8.56043 7.55813 8.08043 7.26813 7.79043L5.38812 5.91043H17.4181C18.6581 5.91043 19.6681 6.92043 19.6681 8.16043V11.4804C19.6681 11.8904 20.0081 12.2304 20.4181 12.2304C20.8281 12.2304 21.1681 11.8904 21.1681 11.4804V8.16043C21.1681 6.09043 19.4881 4.41043 17.4181 4.41043Z" fill="#293C7C"/>
<path d="M21.1681 18.8395C21.1681 18.7395 21.1481 18.6395 21.1081 18.5495C21.0681 18.4595 21.0181 18.3795 20.9481 18.3095L17.7881 15.1495C17.4981 14.8595 17.0181 14.8595 16.7281 15.1495C16.4381 15.4395 16.4381 15.9195 16.7281 16.2095L18.6081 18.0895H6.57812C5.33812 18.0895 4.32812 17.0795 4.32812 15.8395V12.5195C4.32812 12.1095 3.98812 11.7695 3.57812 11.7695C3.16813 11.7695 2.82812 12.1095 2.82812 12.5195V15.8395C2.82812 17.9095 4.50813 19.5895 6.57812 19.5895H18.6081L16.7281 21.4695C16.4381 21.7595 16.4381 22.2395 16.7281 22.5295C16.8781 22.6795 17.0681 22.7495 17.2581 22.7495C17.4481 22.7495 17.6381 22.6795 17.7881 22.5295L20.9481 19.3695C21.0181 19.2995 21.0681 19.2195 21.1081 19.1295C21.1481 19.0395 21.1681 18.9395 21.1681 18.8395Z" fill="#293C7C"/>
</svg>
