<svg width="32" height="22" viewBox="0 0 32 22" fill="none" xmlns="http://www.w3.org/2000/svg">
<g clip-path="url(#clip0_5308_37988)">
<path d="M31.5 18.6001C31.5 20.3001 30.15 21.6501 28.5 21.6501H3.5C1.85 21.6501 0.5 20.3001 0.5 18.6001V3.4001C0.5 1.7001 1.85 0.350098 3.5 0.350098H28.5C30.15 0.350098 31.5 1.7001 31.5 3.4001V18.6001Z" fill="#009966"/>
<path d="M3.5 0.350098H28.5C30.15 0.350098 31.5 1.7001 31.5 3.4001V18.6001C31.5 20.3001 30.15 21.6501 28.5 21.6501" fill="#038E5C"/>
<path d="M31.5 18.6001C31.5 20.3001 30.15 21.6501 28.5 21.6501H3.5C1.85 21.6501 0.5 20.3001 0.5 18.6001M3.5 0.350098H28.5C30.15 0.350098 31.5 1.7001 31.5 3.4001V8.9501" fill="#007A54"/>
<path d="M4.29961 5.19999C4.49961 5.04999 4.49961 5.44999 4.29961 5.89999C4.39961 5.74999 4.59961 5.39999 4.54961 5.14999C4.49961 4.79999 4.29961 4.84999 4.14961 5.04999C4.04961 5.19999 4.09961 5.29999 4.29961 5.19999Z" fill="white"/>
<path d="M4.35021 8.05018C4.60021 7.60018 4.50021 7.25018 4.70021 6.60018C4.85021 6.20018 4.85021 6.50018 4.85021 6.75018C4.75021 7.40018 4.80021 8.45018 5.70021 8.40018C5.75021 9.00018 5.90021 10.0502 5.90021 10.4502C5.90021 10.8002 5.95021 10.7002 6.05021 10.5002C6.15021 10.3002 6.10021 10.0502 6.10021 9.75018C6.10021 9.45018 6.05021 8.90018 6.00021 8.15018C6.10021 8.05018 6.25021 7.90018 6.30021 7.80018C6.40021 7.55018 6.45021 7.60018 6.50021 7.80018C6.60021 8.20018 7.00021 8.45018 7.50021 8.05018C8.00021 7.70018 7.80021 7.00018 7.55021 6.25018C7.75021 6.30018 7.80021 6.15018 7.70021 5.95018C7.65021 5.85018 7.55021 5.75018 7.50021 5.65018C7.40021 5.55018 7.35021 5.45018 7.25021 5.55018C7.15021 5.65018 7.10021 5.75018 7.05021 5.80018C7.00021 5.85018 7.00021 5.95018 7.05021 6.10018C7.25021 6.55018 7.35021 7.05018 7.40021 7.30018C7.45021 7.55018 7.35021 7.60018 7.15021 7.60018C7.00021 7.60018 6.75021 7.55018 6.65021 7.15018C6.55021 6.75018 6.50021 6.60018 6.55021 6.30018C6.55021 6.05018 6.60021 5.85018 6.40021 5.60018C6.20021 5.35018 6.20021 5.40018 6.15021 5.50018C6.10021 5.65018 6.05021 5.85018 6.10021 6.10018C6.20021 6.45018 6.25021 6.75018 6.30021 6.95018C6.35021 7.10018 6.20021 7.40018 5.95021 7.55018C5.90021 7.05018 5.85021 6.45018 5.80021 5.90018C6.10021 5.80018 5.95021 5.45018 5.70021 5.05018C5.55021 4.75018 5.45021 4.85018 5.35021 5.05018C5.25021 5.25018 5.30021 5.35018 5.40021 5.50018C5.35021 5.65018 5.45021 5.85018 5.50021 6.20018C5.55021 6.45018 5.60021 7.10018 5.60021 7.65018C5.40021 7.65018 5.25021 7.50018 5.15021 7.30018C5.00021 6.90018 5.00021 6.50018 5.10021 6.30018C5.20021 6.05018 5.25021 5.70018 5.10021 5.60018C4.95021 5.50018 4.80021 5.60018 4.70021 5.80018C4.50021 6.10018 4.30021 6.50018 4.30021 6.95018C4.30021 7.10018 4.25021 7.45018 4.15021 7.60018C4.10021 7.75018 3.95021 7.75018 3.85021 7.55018C3.65021 7.25018 3.60021 6.45018 3.60021 6.05018C3.60021 5.85018 3.55021 5.80018 3.50021 6.05018C3.30021 6.85018 3.55021 7.65018 3.70021 8.00018C3.95021 8.45018 4.20021 8.35018 4.35021 8.05018Z" fill="white"/>
<path d="M6.74874 5.44996C6.84874 5.34996 6.84874 5.34996 6.89874 5.44996C6.94874 5.54996 7.09874 5.54996 7.14874 5.44996C7.19874 5.34996 7.24874 5.29996 7.19874 5.14996C7.14874 5.04996 7.14874 5.09996 7.09874 5.19996C7.04874 5.39996 6.84874 5.34996 6.84874 5.09996C6.84874 4.84996 6.79874 4.99996 6.69874 5.14996C6.59874 5.39996 6.44874 5.34996 6.44874 5.09996C6.44874 4.94996 6.39874 4.79996 6.29874 4.99996C6.24874 5.14996 6.29874 5.29996 6.34874 5.39996C6.49874 5.54996 6.64874 5.54996 6.74874 5.44996ZM5.24874 9.19996C5.39874 9.14996 5.39874 9.14996 5.39874 8.94996C5.39874 8.74996 5.29874 8.84996 5.09874 8.89996C4.79874 8.99996 4.19874 9.29996 3.74874 9.84996C3.54874 10.1 3.69874 9.99996 3.84874 9.89996C4.09874 9.69996 4.84874 9.29996 5.24874 9.19996ZM4.24874 12.4C4.09874 12.65 3.79874 12.3 3.99874 11.65C4.04874 11.5 4.09874 11.4 4.09874 11.3V10.95C4.09874 10.85 3.99874 11 3.94874 11.2C3.89874 11.5 3.69874 11.65 3.74874 12.6C3.79874 13.15 4.44874 13.15 4.49874 12.45C4.49874 12.15 4.39874 12.15 4.24874 12.4ZM8.69874 10.3C8.69874 10.05 8.64874 9.79996 8.64874 9.54996C8.69874 9.54996 8.69874 9.49996 8.74874 9.49996C8.89874 9.94996 9.54874 9.84996 9.74874 9.54996C9.84874 9.39996 9.84874 9.39996 9.94874 9.54996C10.0987 9.74996 10.5987 9.84996 10.6987 9.54996C10.7987 9.24996 10.7987 8.94996 10.7487 8.74996C10.6987 8.49996 10.6487 8.54996 10.4987 8.64996C10.3487 8.74996 10.4487 8.79996 10.4987 8.94996C10.5487 9.54996 10.0487 9.49996 9.99874 8.89996C9.94874 8.49996 9.89874 8.64996 9.84874 8.84996C9.59874 9.59996 8.94874 9.74996 9.04874 8.84996C9.04874 8.59996 8.89874 8.69996 8.79874 8.79996L8.59874 8.99996C8.54874 8.29996 8.49874 7.49996 8.39874 6.49996C8.59874 6.74996 8.79874 6.44996 8.64874 6.19996C8.54874 5.99996 8.39874 5.49996 8.29874 5.24996C8.19874 4.99996 8.14874 5.04996 7.94874 5.29996C7.74874 5.49996 7.79874 5.54996 7.84874 5.79996C7.84874 6.09996 7.84874 6.34996 7.94874 6.89996C7.99874 7.29996 8.09874 8.14996 8.19874 9.19996C8.09874 9.24996 7.94874 9.34996 7.84874 9.39996C7.79874 9.19996 7.64874 9.09996 7.44874 8.89996C7.14874 8.59996 6.94874 8.59996 6.69874 8.94996C6.44874 9.29996 6.49874 9.34996 6.49874 9.69996C6.49874 9.99996 6.44874 10.1 6.69874 10.2C6.94874 10.3 7.04874 10.25 7.19874 10.2C7.29874 10.15 7.44874 10.1 7.64874 10.05C7.69874 10.2 7.64874 10.4 7.54874 10.5C6.94874 11.2 6.04874 11.75 5.64874 11.25C5.44874 11 5.34874 10.6 5.39874 10.1C5.44874 9.69996 5.34874 9.89996 5.29874 9.99996C5.14874 10.45 5.09874 11.15 5.29874 11.5C5.54874 12 5.99874 12.2 6.69874 11.85C7.39874 11.55 8.04874 11 8.04874 10.25V9.89996C8.14874 9.84996 8.24874 9.79996 8.29874 9.74996V10.6C8.34874 11.4 7.99874 11.65 7.69874 11.9C7.29874 12.2 6.74874 12.45 6.24874 12.5C5.14874 12.65 4.89874 11.95 4.89874 11C4.89874 10.85 4.94874 10.75 4.94874 10.55C4.94874 10.15 4.89874 10.2 4.74874 10.6C4.64874 11 4.49874 11.9 4.84874 12.65C5.24874 13.4 6.54874 13.2 7.54874 12.7C8.64874 12.15 8.74874 11.25 8.69874 10.3ZM7.29874 9.54996C7.04874 9.64996 6.94874 9.49996 6.99874 9.34996C6.99874 9.19996 7.04874 9.09996 7.24874 9.19996C7.34874 9.24996 7.44874 9.34996 7.54874 9.49996C7.39874 9.54996 7.34874 9.54996 7.29874 9.54996Z" fill="white"/>
<path d="M9.84891 11.15C9.94891 10.95 9.99891 10.75 9.94891 10.5C9.89891 10.35 9.94891 10.3 9.79891 10.2C9.64891 10.15 9.59891 10.25 9.54891 10.35C9.49891 10.5 9.59891 10.7 9.79891 10.6C9.84891 10.7 9.79891 10.95 9.74891 11.1C9.69891 11.3 9.74891 11.35 9.84891 11.15ZM10.2489 7.09998C10.0489 7.34998 9.89891 7.69998 10.1989 7.89998C10.3489 7.99998 10.6489 7.84998 10.7489 7.64998C10.8489 7.39998 10.7989 7.34998 10.5989 7.59998C10.3489 7.89998 10.0489 7.64998 10.3489 7.19998C10.5489 6.89998 10.3989 6.84998 10.2489 7.09998ZM9.39891 7.14998C10.0989 6.84998 10.4989 6.44998 10.6989 6.09998C10.8989 6.14998 10.9489 5.99998 10.8489 5.84998C10.8989 5.69998 10.9489 5.59998 10.9989 5.49998C11.1489 4.84998 10.4989 4.79998 10.3489 5.29998C10.2489 5.54998 10.2489 5.79998 10.4489 5.94998C10.1489 6.34998 9.74891 6.69998 9.24891 6.99998C9.04891 7.19998 9.09891 7.29998 9.39891 7.14998ZM10.5989 5.39998C10.6489 5.24998 10.7489 5.34998 10.7489 5.44998C10.7489 5.49998 10.6989 5.59998 10.6489 5.64998C10.5489 5.59998 10.5489 5.49998 10.5989 5.39998Z" fill="white"/>
<path d="M10.3508 5.29998C10.2508 5.54998 10.2508 5.79998 10.4508 5.94998C10.4008 5.99998 10.3508 6.09998 10.3008 6.14998L10.5508 6.34998C10.6008 6.24998 10.7008 6.19998 10.7508 6.09998C10.9508 6.14998 11.0008 5.99998 10.9008 5.84998C10.9508 5.69998 11.0008 5.59998 11.0508 5.49998C11.1508 4.84998 10.5508 4.79998 10.3508 5.29998ZM10.7508 5.44998C10.7508 5.49998 10.7008 5.59998 10.6508 5.64998C10.5508 5.59998 10.5508 5.49998 10.6008 5.39998C10.6508 5.24998 10.7508 5.34998 10.7508 5.44998Z" fill="#CFE7E8"/>
<path d="M11.0989 11.15C10.9989 11.2 10.8489 11.35 10.7489 11.45C10.7489 11.25 10.7989 10.95 10.7989 10.85C10.7989 10.7 10.7489 10.65 10.6489 10.8C10.4989 11.1 10.3489 11.5 10.2989 11.8C9.64893 12.25 8.84893 12.7 8.29893 12.95C8.04893 13.05 8.19893 13.15 8.39893 13.1C9.14893 12.85 9.74893 12.65 10.2989 12.4C10.3489 12.85 10.4989 13.15 10.8989 13.25C11.6489 13.45 12.3989 12.8 13.2489 11.65C13.4489 12.2 13.9489 12.95 15.2489 13.15C15.7989 13.25 15.7489 13.2 15.8489 12.9C15.8989 12.65 15.9989 12.6 15.5489 12.5C14.9989 12.3 14.7989 11.9 15.3489 11.65C15.8989 11.4 16.6489 11.2 17.1489 11.1C17.4989 11.05 17.5989 11.05 17.6989 10.75C17.7989 10.4 17.8489 10.35 17.4989 10.4C17.0989 10.45 15.1989 10.5 14.6989 10.45C15.0989 10.25 15.6489 10.05 16.0489 9.89996C16.1989 9.99996 16.2489 9.94996 16.1989 9.84996C16.3489 9.79996 16.4989 9.74996 16.6489 9.64996C17.0989 9.39996 17.2989 8.84996 16.7989 8.49996C16.2989 8.14996 15.8989 8.04996 15.6489 8.39996C15.4489 8.69996 15.2489 8.99996 15.5489 9.39996C15.0989 9.54996 14.6989 9.69996 14.2989 9.84996C13.9989 9.94996 13.8489 9.99996 13.7489 10.4C13.6489 10.8 13.5989 10.8 13.9989 10.85C14.5489 10.85 15.0489 10.85 15.3989 11.15C14.8489 11.35 14.4489 11.75 14.6489 12.3C14.3989 12.25 14.1489 12.15 13.9489 11.95C13.5489 11.55 13.5489 10.85 13.3989 10.05C13.2489 9.24996 12.8989 8.54996 12.7489 8.24996C12.6489 7.94996 12.5989 8.09996 12.4989 8.29996C12.3989 8.49996 12.2989 8.59996 12.3989 8.89996C12.5989 9.39996 12.8989 10.4 13.0489 11C12.7489 11.7 11.9489 12.55 11.2989 12.65C10.7989 12.75 10.6489 12.45 10.6989 12.2C11.0489 12 11.3489 11.75 11.6489 11.45C12.2489 10.8 12.3489 10.3 11.9489 9.24996C12.1989 9.29996 12.1489 9.09996 11.7989 8.64996C11.5489 8.34996 11.4989 8.39996 11.3489 8.69996C11.2489 8.94996 11.1489 9.14996 11.4489 9.24996C11.4989 9.39996 11.5989 9.59996 11.7489 9.84996C12.0489 10.5 11.5489 10.75 11.0989 11.15ZM15.8489 8.94996C15.8489 8.79996 15.8989 8.79996 16.1489 8.94996C16.3989 9.09996 16.5989 9.14996 16.2489 9.19996C16.1489 9.24996 15.9989 9.24996 15.8989 9.29996C15.8989 9.14996 15.8989 9.04996 15.8489 8.94996Z" fill="white"/>
<path d="M17.4508 10.4C17.2008 10.4 16.1008 10.45 15.3508 10.45L16.3508 11.3C16.6008 11.2 16.9008 11.15 17.1008 11.1C17.4508 11.05 17.5508 11.05 17.6508 10.75C17.7508 10.4 17.8008 10.35 17.4508 10.4ZM12.5508 8.05005L12.6508 8.15005C12.6508 8.05005 12.6008 8.05005 12.5508 8.05005ZM15.1008 10.2C15.4008 10.05 15.7508 9.95005 16.0008 9.85005C16.1508 9.95005 16.2008 9.90005 16.1508 9.80005C16.3008 9.75005 16.4508 9.70005 16.6008 9.60005C17.0508 9.35005 17.2508 8.80005 16.7508 8.45005C16.2508 8.10005 15.8508 8.00005 15.6008 8.35005C15.4008 8.65005 15.2008 8.95005 15.5008 9.35005C15.1508 9.45005 14.8508 9.55005 14.5508 9.70005L15.1008 10.2ZM16.2008 8.95005C16.4508 9.10005 16.6508 9.15005 16.3008 9.20005C16.2008 9.25005 16.0508 9.25005 15.9508 9.30005C15.9008 9.15005 15.9008 9.05005 15.9008 9.00005C15.8508 8.80005 15.9508 8.80005 16.2008 8.95005Z" fill="#CFE7E8"/>
<path d="M16.9996 13C17.1496 12.95 17.3996 12.8 17.5996 12.65C17.7996 12.45 17.6496 12.5 17.4996 12.55C17.3496 12.6 17.1996 12.7 16.9996 12.75C16.7996 12.85 16.7496 12.75 16.8496 12.4C16.9496 12.1 16.8496 12.1 16.6996 12.15C16.5496 12.2 16.4996 12.3 16.3496 12.4C16.2496 12.45 16.2496 12.55 16.4996 12.45C16.6996 12.35 16.6496 12.45 16.5996 12.7C16.4996 12.95 16.6496 13.1 16.9996 13Z" fill="white"/>
<path d="M12.3499 7.54999C12.4999 7.19999 12.5999 6.84999 12.6999 6.59999C12.7999 6.34999 12.8999 6.39999 12.8499 6.64999C12.7999 7.09999 12.7999 7.79999 13.2499 8.09999C13.6999 8.34999 14.3999 7.89999 14.6499 7.39999C15.3999 8.34999 16.0499 7.89999 16.0999 6.99999C16.0999 6.69999 15.9999 6.09999 15.8999 5.89999C15.7999 5.69999 15.8999 5.69999 15.9999 5.79999C16.0999 5.89999 16.2999 5.99999 16.1999 5.64999C16.0999 5.34999 15.9499 5.14999 15.7999 4.99999C15.6499 4.84999 15.5999 4.94999 15.5499 5.04999C15.4999 5.14999 15.4999 5.19999 15.3999 5.29999C15.2999 5.39999 15.3499 5.44999 15.3999 5.59999C15.6999 6.29999 15.9499 7.34999 15.4999 7.44999C15.0999 7.54999 14.8499 6.64999 14.8499 6.24999C14.8499 5.74999 14.7499 5.29999 14.6499 4.99999C14.5499 4.69999 14.4999 4.69999 14.3999 4.84999C14.3499 4.94999 14.3499 5.04999 14.2499 5.14999C14.1999 5.24999 14.2499 5.29999 14.2999 5.49999C14.5499 6.64999 14.4999 7.14999 13.9999 7.44999C13.4999 7.74999 13.1999 7.44999 13.1999 7.09999C13.1999 6.74999 13.1999 6.29999 13.2499 5.99999C13.2999 5.69999 13.3499 5.59999 13.2499 5.44999C13.1499 5.29999 13.0499 5.34999 12.8999 5.54999C12.5999 5.99999 12.2499 6.74999 12.1499 7.09999C12.0499 7.44999 11.7999 7.34999 11.6499 7.04999C11.4499 6.69999 11.4999 6.04999 11.5499 5.74999C11.5999 5.49999 11.5999 5.39999 11.4499 5.64999C11.1999 6.34999 11.1999 7.04999 11.7499 7.64999C11.9999 8.09999 12.1999 7.89999 12.3499 7.54999Z" fill="#CFE7E8"/>
<path d="M13.7496 6.19991C13.7496 6.34991 13.7496 6.54991 13.8496 6.24991C13.8996 5.94991 13.8996 5.54991 13.7996 5.29991C13.6996 5.04991 13.6496 4.99991 13.5496 5.09991C13.4496 5.19991 13.4496 5.24991 13.5496 5.34991C13.6496 5.49991 13.7996 5.84991 13.7496 6.19991ZM14.7996 8.54991C14.7996 8.94991 14.6996 8.94991 14.5496 8.54991C14.4996 8.39991 14.4496 8.39991 14.3996 8.59991C14.3996 8.94991 14.2496 8.99991 14.1496 8.64991C14.0996 8.49991 14.0996 8.34991 14.0496 8.59991C13.9996 8.79991 14.0496 8.94991 14.1496 9.09991C14.2496 9.19991 14.3996 9.19991 14.4496 9.04991C14.4996 8.89991 14.5496 8.89991 14.6496 8.99991C14.7496 9.09991 15.1496 8.99991 14.9496 8.44991C14.8496 8.24991 14.7996 8.29991 14.7996 8.54991ZM18.8496 5.39991C18.9996 5.49991 19.1496 5.74991 19.0996 6.04991C19.0496 6.29991 19.0996 6.44991 19.2496 6.09991C19.3996 5.74991 19.2996 5.34991 19.1496 5.09991C18.9996 4.84991 18.9496 4.94991 18.8496 5.04991C18.7496 5.19991 18.6996 5.34991 18.8496 5.39991ZM16.2996 5.54991C16.2996 5.69991 16.3496 5.79991 16.5496 5.84991C16.9496 6.39991 17.3996 6.99991 17.7996 7.54991C17.8496 8.04991 17.9496 8.54991 17.9996 8.99991C18.0996 9.99991 18.2996 11.3499 18.1496 11.9499C18.0496 12.3999 18.1496 12.5499 18.3496 11.8999C18.5496 11.2499 18.5496 10.5999 18.3996 9.64991C18.3496 9.24991 18.3496 8.79991 18.2996 8.29991C18.9496 9.34991 19.5996 10.3499 19.8496 11.0499C19.9996 11.4499 20.1496 11.4999 19.9996 10.9999C19.8496 10.2999 19.1996 9.09991 18.1996 7.59991C18.1496 7.19991 18.1496 6.79991 18.1496 6.49991C18.2996 6.64991 18.3996 6.54991 18.3496 6.34991C18.2496 5.94991 18.0996 5.64991 17.9496 5.24991C17.8996 5.04991 17.6996 5.04991 17.5996 5.29991C17.4996 5.59991 17.4996 5.64991 17.5996 5.84991C17.5996 6.09991 17.6496 6.44991 17.6996 6.79991C17.5496 6.54991 17.2996 6.19991 17.0996 5.94991C17.3496 6.04991 17.5496 5.99991 17.2996 5.69991C17.0496 5.44991 16.6996 5.14991 16.4996 4.94991C16.2996 4.74991 16.1996 4.89991 16.1996 5.04991C16.2996 5.29991 16.3496 5.39991 16.2996 5.54991ZM19.1496 6.94991C19.0996 7.19991 18.9996 7.09991 18.9496 6.89991C18.8996 6.79991 18.8496 6.84991 18.8496 7.04991C18.8996 7.24991 18.9496 7.39991 19.0996 7.24991C19.1996 7.14991 19.1996 7.14991 19.3496 7.24991C19.4496 7.34991 19.5496 7.24991 19.5996 7.19991C19.5996 7.14991 19.6496 7.04991 19.5996 6.79991C19.5496 6.54991 19.4996 6.69991 19.4496 6.89991C19.3996 7.09991 19.2996 7.14991 19.2496 6.89991C19.2496 6.69991 19.1496 6.74991 19.1496 6.94991Z" fill="#CFE7E8"/>
<path d="M20.2995 10.2C20.3495 11.1 20.4495 11.5 19.8995 12.15C19.2995 12.8 18.8995 13 18.6495 13.05C18.2995 13.15 18.1995 13.3 18.6995 13.25C19.4495 13.2 19.5495 13.2 20.1995 12.45C20.5495 12.05 20.6995 11.55 20.6995 10.35C20.6495 8.24999 20.3995 7.34999 20.3995 6.19999C20.4995 6.29999 20.6495 6.29999 20.5995 6.09999C20.4995 5.84999 20.4495 5.54999 20.3995 5.29999C20.2995 5.04999 20.2495 4.94999 20.1495 5.09999C20.0495 5.24999 19.9495 5.29999 19.8995 5.39999C19.8495 5.49999 19.7995 5.64999 19.8995 5.79999C20.1995 8.24999 20.2495 9.29999 20.2995 10.2ZM21.5995 10.45C21.6495 10.95 21.7495 11.3 21.5995 11.9C21.5495 12.05 21.6495 12.15 21.7495 11.9C22.1995 11.05 21.8995 10.3 21.8495 9.79999C21.7995 9.04999 21.4995 7.09999 21.4495 6.29999L21.4995 6.34999C21.6995 6.44999 21.9495 6.54999 21.7995 6.24999C21.6495 5.99999 21.4995 5.54999 21.3995 5.24999C21.2995 4.94999 21.2495 4.94999 21.0995 5.19999C20.7995 5.59999 20.9995 5.99999 21.0995 6.49999C21.2995 8.19999 21.5495 9.94999 21.5995 10.45ZM22.6495 7.64999C22.7995 7.79999 22.8995 8.09999 22.9995 8.24999C23.0995 8.49999 23.1995 8.29999 23.1995 8.14999C23.1995 7.99999 23.1495 7.54999 23.1995 7.39999C23.2995 7.14999 23.4495 7.49999 23.4995 7.34999C23.5495 7.24999 23.4495 7.19999 23.3995 7.09999C23.3495 6.94999 23.2995 6.99999 23.1995 7.04999C23.0995 7.14999 23.0495 7.24999 23.0495 7.29999V7.84999C23.0495 8.04999 22.9995 8.04999 22.9495 7.94999C22.8995 7.79999 22.7495 7.44999 22.6495 7.34999C22.5495 7.24999 22.3995 7.29999 22.3995 7.44999V7.69999C22.3995 7.79999 22.5995 7.79999 22.6495 7.64999ZM22.5495 9.59999C22.5495 9.74999 22.7495 9.54999 22.8995 9.44999C23.0495 9.34999 23.4995 9.04999 23.6995 8.94999C23.8995 8.84999 23.8495 8.79999 23.7995 8.59999C23.7995 8.39999 23.6495 8.54999 23.4995 8.69999C23.3495 8.84999 22.8995 9.14999 22.7495 9.29999C22.5995 9.44999 22.5495 9.49999 22.5495 9.59999Z" fill="#CFE7E8"/>
<path d="M21.5004 12.3C21.3004 11.9 21.3004 11.5 21.3004 11.15C21.3004 10.85 21.2504 10.6 21.1504 11.1C20.8504 12.3 21.0504 12.55 21.3504 12.8C21.7504 13.15 21.9004 13.2 22.1004 12.85C22.5004 12.25 22.6504 11.75 22.8504 11.45C23.0504 11.2 23.0504 11.4 23.1504 11.5C23.4004 11.8 23.6004 11.9 23.9504 11.95C24.3004 12 24.9004 11.7 24.8504 10.6C24.8004 9.89999 24.7504 8.99998 24.7004 7.99998C25.0504 8.44998 25.3004 8.84998 25.5504 9.19998C25.6504 9.84998 25.7004 10.45 25.7004 10.9C25.6504 11.45 25.8004 11.45 25.9004 10.9C25.9504 10.7 25.9504 10.2 25.9004 9.64998C26.3504 10.25 26.6004 10.6 26.7504 10.9C26.9504 11.25 27.0504 11.5 27.0004 10.85C27.0004 10.6 26.9004 10.4 26.6004 9.94998C26.3004 9.54998 26.0504 9.14998 25.8004 8.74998C25.7004 7.79998 25.6004 6.74998 25.6004 6.19998C25.7504 6.29998 25.8504 6.19998 25.7504 5.99998C25.7004 5.79998 25.5504 5.19998 25.4504 4.99998C25.3504 4.79998 25.2504 4.79998 25.1504 5.04998C25.0504 5.24998 24.9504 5.34998 25.0004 5.49998C25.0504 6.44998 25.1504 7.34998 25.3004 8.14998C25.0504 7.79998 24.8004 7.44998 24.6004 7.14998C24.6004 6.79998 24.5504 6.44999 24.5504 6.09999C24.7004 6.19999 24.7504 6.19998 24.7004 5.94998C24.6504 5.74998 24.4504 5.24998 24.3504 5.04998C24.2504 4.84998 24.2004 4.84998 24.1004 4.99998C23.9504 5.24998 23.9004 5.44998 24.0504 5.69998C24.0504 5.94998 24.1004 6.14998 24.1004 6.39998C23.9504 6.19998 23.8504 5.99999 23.7004 5.84999C23.8504 5.89999 23.9504 5.79998 23.8004 5.64998C23.6504 5.49998 23.3504 5.24999 23.2004 5.09999C23.0504 4.89999 22.9504 4.94999 22.9504 5.09999V5.54998C22.9504 5.69998 22.9504 5.79998 23.1004 6.04998C23.4504 6.49998 23.8504 6.94998 24.1504 7.39998C24.3004 8.99998 24.3504 10.05 24.3504 10.7C24.3504 11.1 24.2004 11.3 24.0004 11.35C23.8004 11.4 23.6004 11.3 23.4004 11C23.0504 10.5 22.9004 10.6 22.6504 11.05C22.4004 11.5 22.2004 11.85 22.0504 12.15C21.9504 12.45 21.7004 12.7 21.5004 12.3ZM26.3004 6.74998C26.3004 7.04998 26.4004 6.99998 26.4504 6.74998C26.5004 6.49998 26.5004 5.99998 26.3504 5.69998C26.2004 5.34998 26.1504 5.49999 26.1004 5.59999C26.0004 5.74999 26.0004 5.79998 26.1504 5.94998C26.2004 6.09998 26.3004 6.44998 26.3004 6.74998Z" fill="#CFE7E8"/>
<path d="M27.6496 9.85013C27.5496 7.75013 27.2996 6.85013 27.3496 6.05013C27.5496 6.20013 27.5996 6.15013 27.4996 5.90013C27.3996 5.65013 27.2496 5.35013 27.1496 5.05013C27.0496 4.80013 26.9996 4.85013 26.8496 5.05013C26.6996 5.25013 26.6996 5.40013 26.7496 5.50013C27.0496 8.05013 27.1996 9.40013 27.2496 10.2001C27.2996 11.3001 27.0496 11.9501 25.9496 12.7001C25.5996 12.9501 25.1996 13.2001 26.0496 13.0001C26.8496 12.7501 27.7496 12.2001 27.6496 9.85013ZM24.8496 12.0501C24.6996 12.2501 25.0496 12.3501 25.0996 12.2001C25.1996 12.3501 25.0996 12.6001 24.9496 12.7501C24.6996 12.9501 24.8496 13.0001 24.9996 12.8501C25.1496 12.7501 25.5496 12.3001 25.2996 12.0001C25.1496 11.9001 24.9496 11.9001 24.8496 12.0501Z" fill="#CFE7E8"/>
<path d="M23.7508 15.7498C23.1008 15.7498 22.5008 15.7498 21.8508 15.7998V15.5998C22.0508 15.3498 22.0008 15.3498 21.8508 15.0998C21.8008 14.9998 21.7508 14.8998 21.6008 15.0998C21.4508 15.2998 21.4508 15.3498 21.6508 15.5998V15.7998C16.7008 15.8498 11.2508 15.7998 6.55078 15.7498C7.05078 16.5998 8.75078 16.5498 10.3008 16.5498C11.7008 16.5498 15.9008 16.5498 21.6008 16.3998V16.6498C21.4008 16.8998 21.4508 16.8998 21.6008 17.1498C21.7508 17.3498 21.8008 17.2498 21.8508 17.1498C21.9008 17.0998 21.9008 17.0498 21.9008 17.0498H22.6508C22.6508 17.1498 22.8008 17.1998 22.8508 17.1998C22.9008 17.1998 23.0508 17.1498 23.0508 17.0498H23.9008C24.0008 17.1998 24.1008 17.2498 24.2508 17.2498C24.5508 17.2498 24.7008 16.8998 24.6508 16.4498C24.6008 15.7998 24.3508 15.6998 23.7508 15.7498ZM23.0508 16.7498C23.0508 16.6498 22.9008 16.5998 22.8508 16.5998C22.8008 16.5998 22.6508 16.6498 22.6508 16.7498H21.9008C21.9008 16.6998 21.8508 16.6498 21.7508 16.5498V16.2998C22.4008 16.2998 23.1008 16.2498 23.8008 16.2498C23.7508 16.3998 23.7508 16.5498 23.7508 16.6998L23.0508 16.7498Z" fill="white"/>
<path d="M23.7491 15.7498C23.0991 15.7498 22.4991 15.7498 21.8491 15.7998V15.5998C22.0491 15.3498 21.9991 15.3498 21.8491 15.0998C21.7991 14.9998 21.7491 14.8998 21.5991 15.0998C21.4491 15.2998 21.4491 15.3498 21.6491 15.5998V15.7998H21.5991L22.2991 16.3998C22.7991 16.3998 23.3491 16.3498 23.8491 16.3498C23.7991 16.4998 23.7991 16.6498 23.7991 16.7998H23.0491C23.0491 16.6998 22.8991 16.6498 22.8491 16.6498C22.7991 16.6498 22.6991 16.6998 22.6991 16.7498L23.0491 17.0498V16.9998H23.8991C23.9991 17.1498 24.0991 17.1998 24.2491 17.1998C24.5491 17.1998 24.6991 16.8498 24.6491 16.3998C24.5991 15.7998 24.3491 15.6998 23.7491 15.7498Z" fill="#CFE7E8"/>
</g>
<defs>
<clipPath id="clip0_5308_37988">
<rect width="32" height="22" fill="white"/>
</clipPath>
</defs>
</svg>
