<svg width="24" height="24" viewBox="0 0 24 24" fill="none" xmlns="http://www.w3.org/2000/svg">
<path d="M12 24C18.6274 24 24 18.6274 24 12C24 5.37258 18.6274 0 12 0C5.37258 0 0 5.37258 0 12C0 18.6274 5.37258 24 12 24Z" fill="#1AAF5D"/>
<path fill-rule="evenodd" clip-rule="evenodd" d="M9.12393 6.39998C9.10139 6.39945 9.06793 6.40892 9.02086 6.42972C8.91499 6.48265 8.70539 6.64598 8.69899 6.83372C8.69259 6.93958 8.66593 6.93918 8.75873 7.00665C8.82579 7.07892 8.89273 7.07185 9.02806 7.01878C9.10579 6.97612 9.13206 6.94865 9.15819 6.87692C9.19046 6.75652 8.98886 6.93385 8.96299 6.79998C8.91793 6.67558 9.04673 6.62438 9.16899 6.50398C9.17179 6.44732 9.17339 6.40105 9.12393 6.39998ZM11.0943 6.40798C11.0565 6.41198 11.0103 6.44798 10.9461 6.53505C10.9001 6.62625 10.7017 6.76412 10.8447 7.04852C10.9621 7.22878 11.0101 7.52185 10.9569 7.84838C10.8758 7.94118 10.8573 7.97305 10.7509 8.06585C10.6014 8.18598 10.4394 8.15532 10.3151 8.11052C10.1991 8.05198 10.1078 8.02198 10.0549 7.83625C10.0645 7.54012 10.0875 7.05545 10.0151 6.95252C9.90833 6.79332 9.73246 6.85038 9.65713 6.89852C9.29579 7.14545 9.11713 7.56252 9.00806 7.89425C8.90793 8.13612 8.80113 8.06625 8.72606 7.96852C8.54353 7.84065 8.53073 6.84092 8.31033 7.00532C7.95726 7.75932 8.51299 8.58532 8.89779 8.50505C9.17553 8.59092 9.35179 8.19572 9.46553 7.76332C9.54326 7.64185 9.60273 7.62785 9.64259 7.69025C9.63233 8.26558 9.69779 8.39385 9.89579 8.56852C10.3371 8.82305 10.7023 8.60078 10.731 8.57918L11.0745 8.32252C11.1509 8.26252 11.2521 8.25878 11.3601 8.31185C11.4651 8.38305 11.4515 8.50598 11.6765 8.59145C11.8657 8.64798 12.2697 8.60518 12.3634 8.48345C12.4895 8.32185 12.5201 8.26625 12.5785 8.20505C12.6685 8.11545 12.8225 8.15518 12.8225 8.18345C12.8082 8.23332 12.7177 8.28265 12.7791 8.37252C12.8862 8.43252 12.9111 8.39398 12.9745 8.38065C13.1985 8.30065 13.3667 7.93758 13.3667 7.93758C13.3766 7.80212 13.2734 7.81225 13.2077 7.84025C13.1217 7.87945 13.1163 7.89292 13.0303 7.93212C12.921 7.94425 12.7089 7.99825 12.6038 7.87678C12.4966 7.73065 12.4959 7.52692 12.4141 7.37945C12.4141 7.36878 12.2707 7.14785 12.4031 7.13358C12.4699 7.14292 12.6138 7.17065 12.6365 7.08092C12.7065 6.99345 12.4851 6.74532 12.3345 6.62025C12.2037 6.51292 12.0231 6.49985 11.8482 6.60945C11.7255 6.69372 11.7438 6.78772 11.7198 6.87692C11.6886 6.97945 11.6945 7.10625 11.8337 7.24172C11.9559 7.42198 12.1781 7.65305 12.1049 7.97945C12.1049 7.97945 11.9758 8.13465 11.7487 8.11452C11.6541 8.09905 11.4999 8.06852 11.4179 7.61585C11.3559 7.27345 11.4334 6.79358 11.239 6.56892C11.195 6.48412 11.1573 6.40158 11.0943 6.40798ZM10.4707 6.44438C10.4118 6.44838 10.3467 6.49945 10.2935 6.59838C10.2479 6.67372 10.1922 7.06732 10.2014 7.06732C10.165 7.18438 10.3651 7.23398 10.4562 7.08345C10.5929 6.80745 10.5935 6.68985 10.6026 6.57278C10.5813 6.48358 10.5295 6.44065 10.4706 6.44452L10.4707 6.44438ZM12.7738 6.47545C12.7134 6.47958 12.6653 6.50612 12.6471 6.57278C12.6231 6.72972 12.6354 6.81505 12.6707 6.94572C12.6978 7.03278 12.8674 7.17865 12.951 7.26318C13.3499 7.66398 13.7337 8.06665 14.1043 8.48318C14.1626 8.79252 14.2053 9.09518 14.2327 9.39652C14.2927 10.0573 14.311 10.88 14.2562 11.5759C14.4218 11.5808 14.6873 11.3759 14.7805 11.0759C14.841 10.6611 14.7589 9.81438 14.7533 9.56945C14.748 9.45272 14.7408 9.33608 14.7317 9.21958C15.1786 9.7647 15.5991 10.331 15.9917 10.9165C16.1413 10.8633 16.1082 10.2335 16.0206 10.1451C15.6919 9.61638 15.2379 9.09465 15.0931 8.89398C15.041 8.82145 14.863 8.61918 14.6521 8.38598C14.6133 8.05305 14.5711 7.77118 14.5437 7.68598C14.4758 7.33412 14.737 7.72572 14.701 7.52118C14.6161 7.16985 14.3566 6.93105 14.0501 6.60918C13.9513 6.50452 13.9533 6.48318 13.8007 6.63492C13.7094 6.78958 13.7106 6.91812 13.7374 7.03892C13.6864 6.98319 13.6327 6.92997 13.5765 6.87945C13.3118 6.70972 13.2954 6.70038 13.0757 6.56185C13.0063 6.52518 12.8746 6.46852 12.7738 6.47545ZM19.5999 6.52825C19.5706 6.52478 19.5385 6.53558 19.5023 6.57545C19.4333 6.62078 19.359 6.70265 19.3613 6.80785C19.3781 6.99318 19.4222 7.18318 19.439 7.36852C19.445 7.39345 19.4513 7.41812 19.4571 7.44292C19.4305 7.41758 19.4071 7.39758 19.3938 7.38745C18.9102 7.00785 19.6161 7.32545 19.3017 7.03212C19.0358 6.81398 18.9579 6.74452 18.7303 6.61345C18.6163 6.55825 18.5474 6.45292 18.5098 6.63225C18.4949 6.78985 18.4794 6.97225 18.4935 7.10518C18.4927 7.17892 18.595 7.31798 18.6834 7.39972C19.0173 7.70674 19.3452 8.02022 19.6669 8.33998C19.7366 9.01092 19.7551 9.62585 19.8259 10.2977C19.8159 10.5852 19.6975 10.9668 19.5855 11.0031C19.5855 11.0031 19.4142 11.0764 19.2998 10.9949C19.2166 10.9699 18.8841 10.5801 18.8841 10.5801C18.7138 10.4635 18.6003 10.4968 18.4791 10.5801C18.145 10.8212 17.9938 11.2728 17.7669 11.584C17.7083 11.6533 17.5434 11.7125 17.3602 11.5787C16.8946 11.1032 17.1669 10.4264 17.1089 10.6004C16.6942 10.9497 16.8778 11.5284 16.9715 11.6529C17.1082 11.8573 17.2189 11.9881 17.4849 12.0893C17.7271 12.2227 17.9159 12.1395 18.0199 12.0461C18.2639 11.8572 18.267 11.3741 18.3815 11.2787C18.4618 11.1031 18.663 11.1333 18.7611 11.2111C18.8562 11.3133 18.9686 11.3797 19.1082 11.4353C19.3357 11.5853 19.6071 11.6127 19.8749 11.4759C20.0575 11.3992 20.1762 11.2996 20.2833 11.1031C20.3982 10.8735 20.3414 9.67012 20.3158 9.00065C20.4882 9.18263 20.6581 9.36687 20.8257 9.55332C20.8995 10.1409 20.9331 10.7196 20.9087 11.2747C20.8914 11.3849 21.4241 10.9452 21.4203 10.7368C21.4179 10.5545 21.4209 10.3893 21.4203 10.2355C21.6775 10.5413 21.9258 10.8545 22.1651 11.1745C22.3117 11.1165 22.2614 10.4968 22.1689 10.4112C21.9213 10.1008 21.6043 9.76545 21.3589 9.50585C21.3105 9.17852 21.2443 8.79212 21.2143 8.67372C21.1675 8.48905 21.1206 8.21185 21.0498 7.99278C21.0303 7.90718 20.9718 7.63398 20.9902 7.60772C21.019 7.54652 21.1281 7.60958 21.1818 7.53878C21.2622 7.47332 20.9031 6.77798 20.7207 6.57945C20.6553 6.49052 20.5367 6.52132 20.3901 6.66598C20.2538 6.76118 20.3037 6.97825 20.3557 7.18465C20.4906 7.71105 20.611 8.24718 20.7063 8.78172C20.5066 8.55962 20.3053 8.33895 20.1025 8.11972C20.0967 8.09772 20.0754 8.01692 20.0754 8.01572C20.0754 8.00638 20.0461 7.58505 20.0211 7.48478C20.0167 7.44398 20.0038 7.43225 20.0609 7.43745C20.1215 7.47558 20.1297 7.47758 20.1675 7.49012C20.2287 7.49852 20.2822 7.42132 20.2453 7.34972C20.0561 7.08878 19.8669 6.82692 19.6777 6.56598C19.655 6.54932 19.6294 6.53158 19.5999 6.52825ZM1.98326 6.54158C1.87846 6.53945 1.76273 6.58798 1.80793 6.68225C1.78166 6.73358 2.01313 6.90705 2.05379 7.00238C2.09019 7.07038 2.01766 7.28905 2.09353 7.30905C2.16326 7.33172 2.25939 7.15772 2.29593 6.99705C2.31619 6.90905 2.30086 6.60758 2.02659 6.54572C2.01227 6.54333 1.99778 6.54186 1.98326 6.54158C1.99819 6.54185 1.98326 6.54158 1.98326 6.54158ZM22.0515 6.54345C22.0277 6.54518 21.9986 6.57412 21.9539 6.64478C21.8466 6.77612 21.8098 7.01132 21.8526 7.21892C22.111 8.52478 22.303 9.78918 22.3426 10.9467C22.3205 11.0565 22.3139 11.1149 22.245 11.2533C22.0925 11.3995 21.9243 11.5825 21.7659 11.6708C21.6075 11.7591 21.2706 11.8432 21.1603 11.9087C20.8107 12.0596 20.809 12.2333 21.0917 12.2396C21.5787 12.1973 22.1553 12.1676 22.5523 11.7195C22.6586 11.5939 22.7837 11.2536 22.7891 11.0452C22.8263 9.82398 22.7682 8.62985 22.5234 7.74732C22.5077 7.66132 22.4569 7.46372 22.4763 7.43798C22.5079 7.37745 22.6673 7.44385 22.7241 7.37438C22.8073 7.31078 22.3118 6.83665 22.1383 6.63398C22.1037 6.58305 22.0822 6.54118 22.0515 6.54345ZM16.9429 6.56372C16.9227 6.56638 16.893 6.58918 16.8379 6.64345C16.7019 6.97598 16.6539 7.24745 16.7059 7.45412C17.0555 8.81745 17.4137 10.0595 17.3569 11.3573C17.5226 11.3581 17.7142 11.074 17.7961 10.7927C17.841 10.4051 17.7662 10.1692 17.7527 9.94145C17.7394 9.71358 17.4077 7.86545 17.3406 7.69318C17.2595 7.36732 17.663 7.65038 17.619 7.46078C17.4794 7.22185 17.1314 6.87398 17.0225 6.66638C16.9814 6.61078 16.9763 6.55932 16.9429 6.56372ZM4.50366 6.58932C4.46059 6.59492 4.41913 6.62132 4.40419 6.66505C4.39473 6.69358 4.42073 6.74105 4.38606 6.75558C4.36619 6.77052 4.29073 6.76052 4.29393 6.68118C4.29393 6.65598 4.26913 6.62972 4.25406 6.61372C4.23913 6.60638 4.22886 6.60425 4.20166 6.60425C4.16846 6.60518 4.16926 6.61172 4.15099 6.63265C4.14299 6.65385 4.13259 6.67452 4.13259 6.69878C4.12846 6.72692 4.11326 6.73652 4.08553 6.74065C4.05459 6.74065 4.06193 6.74318 4.03673 6.73118C4.02179 6.71892 4.00419 6.71412 4.00419 6.69332C4.00419 6.67172 3.99659 6.63732 3.98793 6.62305C3.97473 6.61012 3.95393 6.60332 3.93006 6.59878C3.80006 6.59918 3.79073 6.71078 3.79806 6.75278C3.78833 6.76078 3.78353 6.95852 3.96073 7.01358C4.19873 7.09838 4.64499 7.06252 4.62606 6.77572C4.62606 6.75038 4.61859 6.66518 4.61526 6.64198C4.59099 6.59972 4.54606 6.58372 4.50326 6.58932H4.50366ZM7.69619 6.59198C7.62191 6.59482 7.54862 6.60991 7.47926 6.63665C7.32153 6.74958 7.28459 6.93052 7.40859 7.04332C7.52953 7.08598 7.65019 7.17692 7.56966 7.22705C7.22779 7.49998 6.33819 7.95585 6.29339 8.03905L6.29153 8.04172V8.04572C6.29179 8.04652 6.29286 8.04798 6.29339 8.04852L6.29513 8.04985H6.29699C6.29726 8.04998 6.29833 8.05118 6.29873 8.05118H6.30059L6.30233 8.05252C6.34766 8.07518 6.90419 8.07465 6.96579 8.05385C6.96633 8.05385 6.96726 8.05278 6.96766 8.05252H6.96939V8.05118C7.16073 7.99852 8.06859 7.22305 8.06859 7.22305C8.02153 7.19292 7.97819 7.17065 7.93126 7.14065C7.88086 7.10798 7.88593 7.07598 7.93126 7.04332C8.15606 6.94558 8.08473 6.73038 7.96726 6.63265C7.8801 6.60283 7.78826 6.5891 7.69619 6.59212C7.69619 6.59212 7.77846 6.58892 7.69619 6.59212V6.59198ZM16.0409 6.59465C16.0169 6.59652 15.9878 6.62398 15.9433 6.69465C15.8359 6.82612 15.763 7.05478 15.7715 7.26892C16.0039 8.47158 16.0751 9.52385 16.227 10.7264C16.2394 10.8427 16.2166 11.0117 16.1131 11.0791C15.7305 11.3777 15.1789 11.7459 14.5785 11.9153C14.5138 11.9696 14.739 12.2007 15.0303 12.2004C15.5175 12.1581 15.9457 11.9537 16.3427 11.4155C16.449 11.2899 16.6355 11.0212 16.641 10.8128C16.6782 9.59158 16.5587 8.64212 16.3138 7.75945C16.2982 7.67345 16.3089 7.57172 16.3283 7.54598C16.3598 7.51785 16.4669 7.54652 16.5235 7.47705C16.6069 7.41345 16.3011 6.88665 16.1275 6.68398C16.0929 6.63305 16.0715 6.59252 16.0409 6.59465ZM3.11339 6.63158C3.04619 6.63745 2.98286 6.67825 2.95246 6.73292C2.94126 6.92572 2.93966 7.11852 2.96873 7.29625C3.08606 7.60798 3.12339 7.88225 3.18033 8.20158C3.19606 8.62918 2.84979 8.38652 2.86566 8.17452C2.94566 7.89905 2.92406 7.46558 2.85299 7.35572C2.79673 7.24585 2.73153 7.21878 2.59459 7.23678C2.48579 7.23185 2.20486 7.46065 2.12633 7.83945C2.12633 7.83945 2.06099 8.03385 2.03233 8.20692C1.99393 8.40252 1.82046 8.54105 1.69966 8.17985C1.59526 7.91732 1.53113 7.27052 1.35619 7.42198C1.30619 7.92692 1.24659 8.81558 1.82086 8.90679C2.51526 8.95665 2.13166 8.02945 2.38299 7.86105C2.43059 7.77785 2.51859 7.77638 2.52579 7.88132V8.66892C2.51953 8.92505 2.74499 9.00118 2.91993 9.05398C3.10206 9.04358 3.22273 9.04732 3.29419 9.17972C3.32259 9.63372 3.35246 10.0889 3.38086 10.5429C3.38086 10.5429 3.80193 10.6333 3.82206 9.77678C3.84219 9.27398 3.68806 8.85198 3.77859 8.75412C3.78179 8.65798 3.94659 8.65318 4.06059 8.69998C4.24219 8.79572 4.32273 8.91345 4.60473 8.86625C5.03406 8.77785 5.29273 8.62225 5.29899 8.37572C5.27393 8.14172 5.23766 7.90732 5.10193 7.67318C5.12086 7.63052 5.01979 7.51985 5.03859 7.47718C5.11579 7.56758 5.23246 7.56012 5.25926 7.47718C5.18619 7.29732 5.07246 7.12492 4.88859 7.05038C4.73659 6.95038 4.51446 6.97145 4.43299 7.18012C4.39526 7.42038 4.54953 7.70518 4.78366 7.93798C4.83353 8.02892 4.90313 8.18025 4.87233 8.31638C4.74779 8.36945 4.62419 8.34732 4.51979 8.26492C4.51979 8.26492 4.17819 8.07385 4.17819 8.03118C4.26886 7.59732 4.19766 7.54772 4.14753 7.42718C4.11233 7.26105 4.00699 7.20852 3.92139 7.09492C3.83606 7.02718 3.72006 7.02718 3.66473 7.09492C3.51379 7.29065 3.58459 7.71065 3.69366 7.89892C3.77246 8.07185 3.89339 8.17985 3.83646 8.17985C3.78966 8.27758 3.69179 8.25492 3.62139 8.14198C3.52073 7.90865 3.50019 7.56105 3.50019 7.40438C3.47006 7.20998 3.43633 6.79505 3.26526 6.68972C3.24603 6.66908 3.22234 6.65311 3.196 6.64303C3.16965 6.63296 3.14148 6.62904 3.11339 6.63158C3.16579 6.62705 3.11339 6.63158 3.11339 6.63158ZM5.55206 6.63425C5.51753 6.63745 5.47953 6.65212 5.43459 6.65985C5.28686 6.69505 5.14873 6.79052 5.19233 6.97612C5.36686 7.76865 5.48059 8.37345 5.65499 9.16612C5.68193 9.25892 5.57779 9.38132 5.44353 9.36878C5.21539 9.25345 5.15873 9.01972 4.76926 9.02972C4.48739 9.03225 4.16593 9.26145 4.12579 9.48225C4.07873 9.65785 4.06206 9.84812 4.12579 10.0012C4.32393 10.1792 4.56126 10.1603 4.76926 10.12C4.94046 10.0673 5.08126 9.94132 5.14166 9.97145C5.14193 9.97145 5.14339 9.97118 5.14353 9.97145V9.97278C5.18086 10.0215 5.13993 10.4337 4.33726 10.7523C3.84393 10.9179 3.45126 10.9575 3.23993 10.6564C3.10899 10.4684 3.24939 9.75172 2.92713 9.91732C1.97406 11.7533 5.15993 12.0097 5.51593 9.99305C5.53886 9.93612 5.60913 9.87905 5.65859 9.89305C5.68046 9.89998 5.70033 9.92198 5.70753 9.96332C5.63366 11.7893 3.24273 11.9144 2.83686 11.34C2.73606 11.2047 2.70579 10.9032 2.69579 10.7227C2.67739 10.6133 2.64059 10.5503 2.59806 10.5253C2.50126 10.4709 2.37113 10.6128 2.34326 10.8591C2.30299 11.0572 2.31433 11.1116 2.31433 11.3023C2.44179 12.7445 5.51833 12.1249 6.01833 10.9333C6.26593 10.3175 6.01339 9.85278 6.09619 9.79572C6.09686 9.79532 6.09899 9.79478 6.09979 9.79438L6.10339 9.79305L6.10699 9.79172C6.11055 9.79099 6.11416 9.79054 6.11779 9.79038C6.42326 10.0363 6.85179 9.82158 6.94579 9.73638C6.98606 9.69372 7.08686 9.66625 7.15726 9.72145C7.39553 9.84945 7.81313 9.78918 7.90033 9.56345C7.95073 9.34265 7.99326 9.11545 8.00339 8.87972C7.84819 8.91572 7.72286 8.94278 7.67246 8.98238C7.66127 8.99035 7.65302 9.00179 7.64899 9.01492C7.63566 9.08025 7.62273 9.14558 7.60926 9.21092C7.60786 9.21624 7.60541 9.22122 7.60206 9.22558C7.59407 9.23448 7.58418 9.24145 7.57313 9.24598C7.51819 9.26825 7.42246 9.25545 7.41766 9.19598C7.34379 8.94505 7.04006 8.91252 6.85539 9.30132C6.73126 9.37652 6.50473 9.39118 6.48113 9.27838C6.51139 9.01745 6.37073 8.98238 6.08886 9.10545C5.99819 8.58865 5.90846 8.09545 5.81779 7.57878C5.93513 7.57612 6.04299 7.63985 6.15033 7.53958C6.03419 7.26932 5.78819 6.71958 5.64966 6.66812L5.64606 6.66665C5.63715 6.65891 5.62745 6.65211 5.61713 6.64638C5.6085 6.64222 5.59942 6.63909 5.59006 6.63705C5.57762 6.63411 5.5648 6.63326 5.55206 6.63425C5.56499 6.63305 5.55206 6.63425 5.55206 6.63425ZM15.0589 6.63825C14.937 6.63558 14.8021 6.69292 14.8546 6.80718C14.8239 6.86945 15.1166 7.08065 15.1638 7.19625C15.2487 7.37385 15.099 7.54332 15.1873 7.56785C15.2686 7.59518 15.3817 7.38438 15.4241 7.18958C15.4731 7.03198 15.3227 6.70905 15.1095 6.64238C15.0928 6.63977 15.0758 6.6383 15.0589 6.63825C15.0763 6.63852 15.0589 6.63825 15.0589 6.63825ZM7.65273 6.83292C7.70819 6.82865 7.77539 6.86678 7.80819 6.92065C7.84313 6.97812 7.82553 7.03318 7.76833 7.04358C7.71113 7.05412 7.63713 7.01598 7.60206 6.95852C7.56699 6.90092 7.58459 6.84465 7.64179 6.83425C7.64541 6.83361 7.64906 6.83317 7.65273 6.83292C7.65273 6.83292 7.64899 6.83305 7.65273 6.83292ZM21.3918 7.09905C21.2806 7.09612 21.1594 7.15905 21.2074 7.28278C21.1794 7.35012 21.4446 7.57918 21.4875 7.70425C21.5262 7.79332 21.4289 8.08038 21.5093 8.10692C21.5834 8.13652 21.6875 7.90852 21.7262 7.69758C21.7475 7.58198 21.6331 7.17665 21.4387 7.10438C21.4233 7.10123 21.4076 7.09944 21.3918 7.09905C21.4077 7.09945 21.3918 7.09905 21.3918 7.09905ZM13.7957 7.23945C13.8058 7.27345 13.8159 7.30745 13.8227 7.34212C13.8455 7.41705 13.8651 7.49145 13.8861 7.56518C13.7983 7.47478 13.7257 7.40185 13.6945 7.37585C13.4958 7.19958 13.6989 7.26012 13.7957 7.23945ZM15.5455 7.88265C15.5026 7.88825 15.4611 7.91598 15.4461 7.95958C15.4367 7.98825 15.4645 8.03438 15.4298 8.04892C15.4099 8.06385 15.3327 8.05505 15.3358 7.97585C15.3358 7.95052 15.3111 7.92292 15.2961 7.90692C15.281 7.89958 15.2709 7.89758 15.2437 7.89758C15.2105 7.89852 15.2113 7.90505 15.193 7.92585C15.1854 7.94718 15.175 7.96798 15.175 7.99212C15.1709 8.02025 15.1575 8.02985 15.1297 8.03398C15.0987 8.03398 15.1043 8.03652 15.0791 8.02452C15.0642 8.01225 15.0466 8.00745 15.0466 7.98665C15.0466 7.96505 15.039 7.93065 15.0303 7.91638C15.0171 7.90345 14.9963 7.89798 14.9725 7.89345C14.8425 7.89372 14.8349 8.00412 14.8423 8.04612C14.8326 8.05412 14.8259 8.25318 15.0033 8.30825C15.2411 8.39305 15.6891 8.35585 15.6703 8.06905C15.6703 8.04372 15.661 7.95852 15.6577 7.93532C15.6334 7.89305 15.5883 7.87705 15.5455 7.88265ZM7.55553 7.94212C7.52619 7.93985 7.48766 7.94785 7.44353 7.96772C7.23286 8.05278 7.15153 8.30505 7.28246 8.45278C7.40486 8.58278 7.59846 8.53518 7.62419 8.53518C7.83033 8.55452 7.95326 8.24612 7.95326 8.24612C7.95326 8.24612 7.95939 8.15945 7.71459 8.32305C7.61153 8.33745 7.59753 8.30972 7.57179 8.26638C7.55033 8.18612 7.55486 8.10478 7.60433 8.02452C7.62699 7.97638 7.60433 7.94585 7.55553 7.94212ZM18.8505 7.98132C18.7337 7.97705 18.6093 8.03358 18.5775 8.15278C18.5779 8.22318 18.6199 8.26185 18.6118 8.32572C18.5997 8.36225 18.5493 8.38625 18.4291 8.34332C18.4481 8.33038 18.3515 8.22852 18.3515 8.22852C18.2579 8.18585 18.1329 8.23078 18.0515 8.27038C18.0066 8.33118 17.9735 8.43545 18.0243 8.54199C18.1587 8.72758 18.6198 9.04425 18.8397 9.04732C18.8437 8.87999 18.8654 8.65745 18.8775 8.51905C18.8829 8.46678 18.8991 8.40918 18.9662 8.39598C19.0331 8.38292 19.1493 8.44638 19.1506 8.39198C19.1383 8.28558 19.1099 8.12838 19.0294 8.05425C18.9882 8.00852 18.9206 7.98385 18.8505 7.98132ZM9.50099 8.56358C9.49779 8.56438 9.49473 8.56639 9.49193 8.56759C9.49013 8.56843 9.48835 8.56932 9.48659 8.57025C9.46326 8.58345 9.43579 8.61345 9.37446 8.64598C9.27086 8.73398 9.25233 8.79532 9.25873 8.97159C9.26459 8.99025 9.45513 9.38625 9.61659 9.66465C9.72553 9.95398 9.82619 10.2853 9.75219 10.5983C9.49739 11.012 8.98499 11.3831 8.49046 11.5845C8.23846 11.6449 8.02086 11.6244 7.96246 11.5832L7.96073 11.5819C7.81606 11.5092 7.81273 11.3797 7.82153 11.3576V11.3563L7.82339 11.3549C8.24073 11.1376 8.71739 10.9619 9.09059 10.3753C9.20086 10.1513 9.23446 10.0167 9.12499 9.67012C9.08233 9.54105 9.02953 9.43478 8.91166 9.34318L8.91339 9.34185C8.98446 9.31652 9.16873 9.41785 9.19726 9.35398C9.15366 9.18852 9.00366 8.96638 8.83393 8.85265C8.68526 8.75185 8.52353 8.74012 8.38726 8.83252C8.23406 8.89625 8.20153 9.12518 8.27526 9.32558C8.35726 9.47652 8.57859 9.50292 8.73633 9.80652V9.80785C8.73953 9.82692 8.79033 10.0345 8.71099 10.1187C8.64646 10.2689 7.81873 10.7568 7.76006 10.7861C7.75939 10.7867 7.75526 10.7884 7.75473 10.7888L7.75286 10.7901L7.75099 10.7915L7.74926 10.7928H7.74566C7.74502 10.7924 7.7444 10.7919 7.74379 10.7915V10.7901L7.74193 10.7875C7.73953 10.7753 7.74393 10.7443 7.74193 10.6943C7.73659 10.6028 7.78726 10.396 7.78353 10.3605V10.3592L7.78179 10.3579V10.3565H7.77993C7.50633 10.4885 7.41593 10.8933 7.36593 11.0132C6.67326 11.3709 5.88659 11.6371 5.43353 11.9995C5.19753 12.2748 7.05926 11.6832 7.27566 11.6116C7.27753 11.6127 7.27939 11.6143 7.28099 11.6156C7.32219 11.6496 7.32566 11.7676 7.44913 11.8737C7.64273 12.0697 8.05406 12.1904 8.45433 12.1156C9.12553 11.9343 9.51219 11.5924 9.90593 11.2131C9.96219 11.1519 10.0505 11.1037 10.1319 11.1509C10.4025 11.6036 11.1826 11.9256 12.191 11.9589C12.4243 11.7469 12.3127 11.6425 12.2181 11.5981C12.189 11.5837 11.7166 11.4461 11.6433 11.3091C11.597 11.1815 11.7093 11.0684 11.9343 10.9835C12.5818 10.9248 13.2183 10.8599 13.8343 10.7119C13.8405 10.5572 13.9623 10.3259 14.0439 10.2255C14.1006 10.1557 14.137 10.1489 14.1506 10.1391L14.1525 10.1377L14.1542 10.1364L14.1561 10.1351V10.1323C14.1564 10.1277 14.1557 10.1231 14.1542 10.1188L14.0494 10.0728L11.9831 10.0661C11.9637 10.0611 11.9449 10.0538 11.9271 10.0444L11.9234 10.0417L11.9217 10.0404L11.9198 10.0391L11.9181 10.0364C11.9178 10.0363 11.9165 10.0351 11.9162 10.0351V10.0337L11.9145 10.0324V10.0216C11.9147 10.0212 11.9158 10.0203 11.9162 10.0203C11.9167 10.0195 11.9174 10.0181 11.9181 10.0175C11.9281 10.0073 11.9526 9.99772 11.9831 9.98905C12.4765 9.93878 13.3531 9.83145 13.4113 9.20132C13.4022 8.87318 13.2233 8.65825 12.6846 8.59865C12.2886 8.62158 12.0063 8.90785 12.0518 9.22292C12.0329 9.30785 12.0902 9.47438 11.9741 9.49318C11.2146 9.54505 10.3857 9.90065 10.3579 10.1552H10.3561L10.3543 10.1565L10.3507 10.1579H10.347C10.3458 10.1583 10.343 10.1591 10.3417 10.1592H10.3362C10.3344 10.1591 10.3326 10.1591 10.3309 10.1592L10.3235 10.1579C10.2742 10.1476 10.2106 10.0868 10.2205 10.0012C10.1917 9.56118 9.99993 9.06332 9.69993 8.67985C9.59273 8.59985 9.54619 8.56745 9.51553 8.56358H9.50099ZM11.4787 8.79598C11.4357 8.80158 11.3942 8.82799 11.3793 8.87158C11.3698 8.90025 11.3977 8.94772 11.363 8.96225C11.343 8.97719 11.2658 8.96838 11.269 8.88918C11.269 8.86385 11.2442 8.83625 11.2293 8.82025C11.2142 8.81292 11.2058 8.81092 11.1786 8.81092C11.1454 8.81185 11.1443 8.81838 11.1262 8.83918C11.1185 8.86052 11.1081 8.88132 11.1081 8.90545C11.1041 8.93358 11.0907 8.94319 11.0629 8.94732C11.0319 8.94732 11.0393 8.94985 11.0141 8.93785C10.9991 8.92558 10.9797 8.92078 10.9797 8.89998C10.9797 8.87838 10.9739 8.84398 10.9653 8.82972C10.9521 8.81678 10.9294 8.81132 10.9057 8.80678C10.7757 8.80718 10.7679 8.91745 10.7754 8.95945C10.7657 8.96745 10.7591 9.16652 10.9363 9.22158C11.1743 9.30638 11.7414 9.25638 11.6034 8.98238C11.6034 8.95705 11.5941 8.87185 11.5907 8.84865C11.5665 8.80638 11.5217 8.79038 11.4787 8.79598ZM19.4601 9.04052C19.4534 9.03966 19.4466 9.04011 19.4401 9.04185C19.4401 9.04185 18.3377 9.62812 18.3103 9.64852C18.201 9.72118 18.2557 9.97652 18.3103 9.94718C18.3894 9.96985 19.4994 9.40758 19.4782 9.34185C19.5266 9.34385 19.5498 9.05252 19.4601 9.04052ZM12.5206 9.12745C12.5655 9.12385 12.6246 9.13532 12.6814 9.15985C12.7637 9.19545 12.8145 9.24918 12.8081 9.28825C12.8078 9.28932 12.8082 9.29118 12.8081 9.29225C12.8077 9.29332 12.8047 9.29532 12.8043 9.29625L12.8026 9.30025L12.8007 9.30305L12.799 9.30572C12.7957 9.30929 12.7921 9.31246 12.7881 9.31518C12.7485 9.34278 12.6573 9.33892 12.5711 9.30172C12.4897 9.26638 12.4391 9.21238 12.4446 9.17332C12.4447 9.17225 12.4462 9.17038 12.4465 9.16932C12.448 9.16436 12.4504 9.15974 12.4537 9.15572C12.4549 9.15425 12.4559 9.15172 12.4573 9.15038L12.4591 9.14905C12.4619 9.14661 12.4649 9.14439 12.4681 9.14238C12.4843 9.13362 12.5022 9.12852 12.5206 9.12745C12.5206 9.12745 12.4998 9.12905 12.5206 9.12745ZM2.86473 9.27598C2.29339 9.28385 1.45673 9.83572 1.43473 10.1421C2.03766 9.92572 2.62979 9.71745 3.24259 9.49359C3.14366 9.38318 3.23659 9.28372 2.86473 9.27598ZM4.71593 9.46798C4.77193 9.46838 4.83099 9.48905 4.86233 9.54758C4.89059 9.60132 4.86366 9.65758 4.82979 9.68545V9.68678L4.82793 9.68945C4.80393 9.71252 4.71993 9.70292 4.65993 9.70292C4.58726 9.70052 4.55153 9.69172 4.50793 9.64758C4.48713 9.59852 4.55059 9.55038 4.57859 9.51385C4.57873 9.51345 4.57993 9.51278 4.58033 9.51252C4.58417 9.5085 4.58841 9.50488 4.59299 9.50172C4.61459 9.48678 4.65219 9.47292 4.69233 9.46918C4.70033 9.46852 4.70793 9.46798 4.71593 9.46798ZM19.2453 9.63785C19.1437 9.64718 19.047 9.71892 19.0915 9.83372C19.0635 9.90118 19.2294 10.1368 19.2723 10.262C19.311 10.3511 19.2225 10.6031 19.303 10.6295C19.3771 10.6592 19.5721 10.48 19.5651 10.2552C19.5866 10.1397 19.5101 9.71412 19.3158 9.64185C19.2926 9.63708 19.2689 9.63573 19.2453 9.63785ZM6.90553 10.0539C6.81566 10.0587 6.73553 10.0945 6.77166 10.1891C6.76633 10.2576 7.02539 10.3411 7.04099 10.4997C7.07806 10.5652 6.98566 10.7748 7.06273 10.7944C7.13339 10.8161 7.23179 10.6495 7.26886 10.4944C7.28939 10.4095 7.17993 10.1124 6.99406 10.0593C6.96482 10.0544 6.93514 10.0525 6.90553 10.0539C6.93539 10.0523 6.90553 10.0539 6.90553 10.0539ZM10.5989 10.4309C10.6055 10.4305 10.6115 10.4309 10.6186 10.4309H10.6222C10.8525 10.4776 11.1918 10.4825 11.4865 10.5052C11.7265 10.5165 11.8449 10.6569 11.6202 10.7159C11.3985 10.7727 11.1855 10.8171 11.1845 11.0564C11.2137 11.1751 11.2075 11.2373 11.1827 11.2659C11.1805 11.2682 11.1781 11.2705 11.1755 11.2725C11.1751 11.2729 11.1739 11.2739 11.1737 11.2739L11.1719 11.2753L11.1701 11.2767L11.1682 11.278L11.1646 11.2793C11.1611 11.2809 11.1575 11.2823 11.1538 11.2833C11.1507 11.2843 11.1462 11.2844 11.143 11.2847C11.0902 11.2905 11.0137 11.2529 10.9567 11.2307C10.8201 11.1573 10.4365 10.9797 10.3819 10.5984C10.3741 10.5124 10.4603 10.4381 10.5989 10.4309ZM1.57779 10.724C1.56339 10.7243 1.53473 10.7564 1.49646 10.7928C1.15659 11.1975 1.12633 11.8016 1.31379 11.9819C1.41353 12.0669 1.57779 12.1045 1.69899 12.0779C1.91246 12.0085 2.00633 11.6853 1.95566 11.5671C1.88446 11.4837 1.82793 11.4705 1.75673 11.5413C1.60659 11.7693 1.54406 11.6133 1.53086 11.486C1.50779 11.2444 1.53913 11.0219 1.57419 10.8456C1.59286 10.7553 1.59219 10.7236 1.57779 10.724ZM13.1569 11.2553C13.1298 11.254 13.1027 11.2581 13.0773 11.2675C13.0719 11.2675 12.8339 11.3877 12.7573 11.4715C12.7106 11.4981 12.7159 11.5212 12.7302 11.5675C12.7666 11.6301 12.8309 11.6104 12.9038 11.5808C13.0005 11.5711 13.0473 11.6184 13.0394 11.7052C12.9947 11.8135 13.0593 11.8537 13.0593 11.8605C13.0593 11.8673 13.1523 11.9272 13.2617 11.8795C13.4925 11.8136 13.6363 11.7496 13.9594 11.6971C14.0443 11.6957 14.0394 11.5261 13.9053 11.5201C13.7302 11.5268 13.5687 11.5335 13.3937 11.6363C13.2859 11.6549 13.2675 11.6059 13.2435 11.562C13.2162 11.4531 13.3051 11.3761 13.287 11.2945C13.2918 11.2981 13.2326 11.2584 13.1569 11.2553ZM20.5707 11.462C20.5278 11.4631 20.4826 11.4675 20.4171 11.4715C20.3462 11.4827 20.3215 11.5059 20.3086 11.5701C20.3137 11.6675 20.3934 11.6627 20.4749 11.7012C20.5222 11.7461 20.5529 11.7868 20.4713 11.8605C20.3939 11.9135 20.3389 11.9428 20.2617 11.9957C20.2251 12.0423 20.2023 12.1137 20.3141 12.1363C20.5202 12.1795 20.9974 11.9479 20.9974 11.9429C21.0747 11.8997 21.049 11.8173 21.0426 11.8173C20.9974 11.7788 20.8958 11.802 20.8274 11.7957C20.7949 11.7957 20.6881 11.7839 20.7389 11.7133C20.7813 11.6693 20.7969 11.6432 20.8255 11.5891C20.8578 11.5361 20.8295 11.5004 20.7135 11.4715C20.6663 11.4644 20.6185 11.4612 20.5707 11.4621C20.5707 11.4621 20.6137 11.4611 20.5707 11.4621V11.462ZM17.4734 16.1487C17.473 16.1488 17.4721 16.1497 17.4717 16.15C17.1287 16.2157 17.1394 16.4819 17.3597 16.5985C13.7386 16.5985 8.18193 16.5527 6.99033 16.5527C6.32353 16.5527 4.21433 16.4932 4.17366 16.4932C4.62606 16.9876 5.28126 17.0884 6.13873 17.0985C7.74713 17.0985 15.199 17.0836 17.3198 17.0836C17.169 17.2836 17.3334 17.6056 17.4518 17.6645C17.4593 17.6681 17.4671 17.6708 17.4753 17.6725C17.4766 17.6729 17.4793 17.6725 17.4806 17.6727C17.621 17.6975 17.6829 17.6215 17.7301 17.566C17.9579 17.5809 19.2398 17.5948 19.3571 17.5647C19.3575 17.5645 19.3585 17.5633 19.3589 17.5633C19.4383 17.6505 19.517 17.7331 19.6681 17.7187C19.9323 17.6763 20.1405 17.6547 20.1471 17.2539C20.1471 17.2539 20.1201 16.5707 19.5198 16.6135C19.3778 16.6295 18.9793 16.6595 18.9793 16.6595C18.5181 16.6184 18.1798 16.6141 17.6614 16.6C17.7094 16.5547 17.7938 16.3707 17.6903 16.304C17.6634 16.2873 17.6231 16.278 17.5674 16.2811H17.5619C17.5615 16.2811 17.5606 16.2797 17.5602 16.2797C17.5587 16.2793 17.5562 16.2791 17.5549 16.2784C17.5516 16.2765 17.5486 16.2743 17.5458 16.2717C17.5451 16.2711 17.5427 16.2696 17.5421 16.2691C17.5159 16.2404 17.5015 16.1704 17.4843 16.1528C17.4841 16.1525 17.4827 16.1515 17.4825 16.1515C17.4822 16.1513 17.4809 16.1501 17.4806 16.1501C17.4794 16.1496 17.4782 16.1492 17.477 16.1488L17.4734 16.1487ZM17.7194 17.1255C17.7199 17.1253 17.7206 17.1257 17.7211 17.1255C18.2494 17.1448 18.7458 17.1292 19.2741 17.1485C19.3578 17.2016 19.3159 17.3235 19.2614 17.3457C19.2584 17.3468 19.2554 17.3477 19.2523 17.3484C19.2503 17.3488 19.2471 17.3484 19.2451 17.3484C19.2431 17.3484 19.2398 17.3488 19.2379 17.3484C19.0662 17.3452 18.9667 17.3421 18.795 17.3391C18.7949 17.3325 18.7937 17.3261 18.7914 17.32C18.7507 17.2298 18.4558 17.236 18.3865 17.3067C18.3852 17.308 18.384 17.3093 18.3829 17.3107C18.3817 17.312 18.3802 17.3147 18.3793 17.316C18.3779 17.3181 18.3767 17.3204 18.3757 17.3227C18.3745 17.3253 18.3743 17.3293 18.3738 17.3323C18.3734 17.3355 18.3717 17.3396 18.3719 17.3429C18.1401 17.3639 17.9314 17.3373 17.6995 17.3309C17.6315 17.2676 17.6395 17.1531 17.7194 17.1256V17.1255Z" fill="white"/>
</svg>
